%TF.GenerationSoftware,KiCad,Pcbnew,(6.0.0)*%
%TF.CreationDate,2022-06-09T20:52:26+02:00*%
%TF.ProjectId,TPS42-LCD-Shield,54505334-322d-44c4-9344-2d536869656c,rev?*%
%TF.SameCoordinates,Original*%
%TF.FileFunction,Profile,NP*%
%FSLAX46Y46*%
G04 Gerber Fmt 4.6, Leading zero omitted, Abs format (unit mm)*
G04 Created by KiCad (PCBNEW (6.0.0)) date 2022-06-09 20:52:26*
%MOMM*%
%LPD*%
G01*
G04 APERTURE LIST*
%TA.AperFunction,Profile*%
%ADD10C,0.050000*%
%TD*%
%TA.AperFunction,Profile*%
%ADD11C,0.100000*%
%TD*%
G04 APERTURE END LIST*
D10*
X89280000Y-37630000D02*
X89280000Y-42710000D01*
X103850000Y-53270000D02*
X102210000Y-53270000D01*
X91430000Y-54050000D02*
X91430000Y-61050000D01*
D11*
X99945000Y-43820000D02*
X91615000Y-43820000D01*
D10*
X88500000Y-43490000D02*
G75*
G03*
X89280000Y-42710000I-1J780001D01*
G01*
X102280000Y-42710000D02*
X102280000Y-36280000D01*
X100910000Y-53270000D02*
G75*
G03*
X100130000Y-54050000I1J-780001D01*
G01*
X102280000Y-36280000D02*
G75*
G03*
X101500000Y-35500000I-780001J-1D01*
G01*
X100130000Y-61050000D02*
X100130000Y-54050000D01*
X90650000Y-53270000D02*
X87710000Y-53270000D01*
X87710000Y-43490000D02*
G75*
G03*
X86930000Y-44270000I1J-780001D01*
G01*
X91430000Y-54050000D02*
G75*
G03*
X90650000Y-53270000I-780001J-1D01*
G01*
X90060000Y-35500000D02*
G75*
G03*
X89280000Y-36280000I1J-780001D01*
G01*
X89280000Y-37630000D02*
X89280000Y-36280000D01*
X99350000Y-61830000D02*
G75*
G03*
X100130000Y-61050000I-1J780001D01*
G01*
X87710000Y-43490000D02*
X88500000Y-43490000D01*
D11*
X91615000Y-47680000D02*
X99945000Y-47680000D01*
D10*
X104630000Y-44270000D02*
G75*
G03*
X103850000Y-43490000I-780001J-1D01*
G01*
X104630000Y-44270000D02*
X104630000Y-52490000D01*
X86930000Y-44270000D02*
X86930000Y-52490000D01*
X103060000Y-43490000D02*
X103850000Y-43490000D01*
X99350000Y-61830000D02*
X92210000Y-61830000D01*
X102280000Y-42710000D02*
G75*
G03*
X103060000Y-43490000I780001J1D01*
G01*
X103850000Y-53270000D02*
G75*
G03*
X104630000Y-52490000I-1J780001D01*
G01*
D11*
X91615000Y-43820000D02*
X91615000Y-47680000D01*
X99945000Y-47680000D02*
X99945000Y-43820000D01*
D10*
X86930000Y-52490000D02*
G75*
G03*
X87710000Y-53270000I780001J1D01*
G01*
X91430000Y-61050000D02*
G75*
G03*
X92210000Y-61830000I780001J1D01*
G01*
X102210000Y-53270000D02*
X100910000Y-53270000D01*
X90060000Y-35500000D02*
X101500000Y-35500000D01*
M02*
