%TF.GenerationSoftware,KiCad,Pcbnew,(6.0.0)*%
%TF.CreationDate,2022-06-09T20:52:26+02:00*%
%TF.ProjectId,TPS42-LCD-Shield,54505334-322d-44c4-9344-2d536869656c,rev?*%
%TF.SameCoordinates,Original*%
%TF.FileFunction,Copper,L1,Top*%
%TF.FilePolarity,Positive*%
%FSLAX46Y46*%
G04 Gerber Fmt 4.6, Leading zero omitted, Abs format (unit mm)*
G04 Created by KiCad (PCBNEW (6.0.0)) date 2022-06-09 20:52:26*
%MOMM*%
%LPD*%
G01*
G04 APERTURE LIST*
G04 Aperture macros list*
%AMRoundRect*
0 Rectangle with rounded corners*
0 $1 Rounding radius*
0 $2 $3 $4 $5 $6 $7 $8 $9 X,Y pos of 4 corners*
0 Add a 4 corners polygon primitive as box body*
4,1,4,$2,$3,$4,$5,$6,$7,$8,$9,$2,$3,0*
0 Add four circle primitives for the rounded corners*
1,1,$1+$1,$2,$3*
1,1,$1+$1,$4,$5*
1,1,$1+$1,$6,$7*
1,1,$1+$1,$8,$9*
0 Add four rect primitives between the rounded corners*
20,1,$1+$1,$2,$3,$4,$5,0*
20,1,$1+$1,$4,$5,$6,$7,0*
20,1,$1+$1,$6,$7,$8,$9,0*
20,1,$1+$1,$8,$9,$2,$3,0*%
%AMFreePoly0*
4,1,6,1.000000,0.000000,0.500000,-0.750000,-0.500000,-0.750000,-0.500000,0.750000,0.500000,0.750000,1.000000,0.000000,1.000000,0.000000,$1*%
%AMFreePoly1*
4,1,6,0.500000,-0.750000,-0.650000,-0.750000,-0.150000,0.000000,-0.650000,0.750000,0.500000,0.750000,0.500000,-0.750000,0.500000,-0.750000,$1*%
G04 Aperture macros list end*
%TA.AperFunction,SMDPad,CuDef*%
%ADD10FreePoly0,180.000000*%
%TD*%
%TA.AperFunction,SMDPad,CuDef*%
%ADD11FreePoly1,180.000000*%
%TD*%
%TA.AperFunction,SMDPad,CuDef*%
%ADD12RoundRect,0.237500X0.250000X0.237500X-0.250000X0.237500X-0.250000X-0.237500X0.250000X-0.237500X0*%
%TD*%
%TA.AperFunction,SMDPad,CuDef*%
%ADD13RoundRect,0.237500X0.300000X0.237500X-0.300000X0.237500X-0.300000X-0.237500X0.300000X-0.237500X0*%
%TD*%
%TA.AperFunction,SMDPad,CuDef*%
%ADD14RoundRect,0.237500X0.237500X-0.300000X0.237500X0.300000X-0.237500X0.300000X-0.237500X-0.300000X0*%
%TD*%
%TA.AperFunction,ComponentPad*%
%ADD15C,1.700000*%
%TD*%
%TA.AperFunction,ComponentPad*%
%ADD16O,1.700000X1.700000*%
%TD*%
%TA.AperFunction,SMDPad,CuDef*%
%ADD17FreePoly0,0.000000*%
%TD*%
%TA.AperFunction,SMDPad,CuDef*%
%ADD18FreePoly1,0.000000*%
%TD*%
%TA.AperFunction,SMDPad,CuDef*%
%ADD19RoundRect,0.250000X0.450000X-0.350000X0.450000X0.350000X-0.450000X0.350000X-0.450000X-0.350000X0*%
%TD*%
%TA.AperFunction,SMDPad,CuDef*%
%ADD20RoundRect,0.250000X-0.450000X0.350000X-0.450000X-0.350000X0.450000X-0.350000X0.450000X0.350000X0*%
%TD*%
%TA.AperFunction,ViaPad*%
%ADD21C,0.800000*%
%TD*%
%TA.AperFunction,Conductor*%
%ADD22C,0.250000*%
%TD*%
G04 APERTURE END LIST*
D10*
%TO.P,JP3,1,A*%
%TO.N,Net-(J8-Pad3)*%
X93608940Y-49040000D03*
D11*
%TO.P,JP3,2,B*%
%TO.N,/L_CLK*%
X92158940Y-49040000D03*
%TD*%
D12*
%TO.P,R1,1*%
%TO.N,+3V3*%
X103632500Y-48560000D03*
%TO.P,R1,2*%
%TO.N,/L_EXTMODE*%
X101807500Y-48560000D03*
%TD*%
D13*
%TO.P,C1,1*%
%TO.N,+3V3*%
X103592500Y-51840000D03*
%TO.P,C1,2*%
%TO.N,GND*%
X101867500Y-51840000D03*
%TD*%
D14*
%TO.P,C2,1*%
%TO.N,VDDA*%
X87940000Y-50772500D03*
%TO.P,C2,2*%
%TO.N,GNDA*%
X87940000Y-49047500D03*
%TD*%
D15*
%TO.P,J8,1,Pin_1*%
%TO.N,Net-(J8-Pad1)*%
X98315000Y-56285000D03*
D16*
%TO.P,J8,2,Pin_2*%
%TO.N,GND*%
X95775000Y-56285000D03*
%TO.P,J8,3,Pin_3*%
%TO.N,Net-(J8-Pad3)*%
X93235000Y-56285000D03*
%TO.P,J8,4,Pin_4*%
%TO.N,Net-(J8-Pad4)*%
X98315000Y-58825000D03*
%TO.P,J8,5,Pin_5*%
%TO.N,+3V3*%
X95775000Y-58825000D03*
%TO.P,J8,6,Pin_6*%
%TO.N,Net-(J8-Pad6)*%
X93235000Y-58825000D03*
%TD*%
D13*
%TO.P,C3,1*%
%TO.N,+3V3*%
X103592500Y-50200000D03*
%TO.P,C3,2*%
%TO.N,GND*%
X101867500Y-50200000D03*
%TD*%
D17*
%TO.P,JP4,1,A*%
%TO.N,Net-(J8-Pad1)*%
X92168940Y-51660000D03*
D18*
%TO.P,JP4,2,B*%
%TO.N,/L_DAT*%
X93618940Y-51660000D03*
%TD*%
D10*
%TO.P,JP2,1,A*%
%TO.N,Net-(J8-Pad4)*%
X98525000Y-49040000D03*
D11*
%TO.P,JP2,2,B*%
%TO.N,/L_EIN*%
X97075000Y-49040000D03*
%TD*%
D17*
%TO.P,JP1,1,A*%
%TO.N,Net-(J8-Pad6)*%
X97085000Y-51730000D03*
D18*
%TO.P,JP1,2,B*%
%TO.N,/L_CS*%
X98535000Y-51730000D03*
%TD*%
D19*
%TO.P,FB2,1*%
%TO.N,GNDA*%
X87940000Y-47120000D03*
%TO.P,FB2,2*%
%TO.N,GND*%
X87940000Y-45120000D03*
%TD*%
D20*
%TO.P,FB1,1*%
%TO.N,VDDA*%
X103400000Y-44710000D03*
%TO.P,FB1,2*%
%TO.N,+3V3*%
X103400000Y-46710000D03*
%TD*%
D21*
%TO.N,/L_DAT*%
X90334500Y-47810000D03*
%TO.N,/L_CS*%
X100350000Y-36870000D03*
X95663778Y-48350688D03*
X100765980Y-42269502D03*
%TO.N,/L_EIN*%
X101074500Y-45080000D03*
X96275500Y-42050000D03*
X100215500Y-50160000D03*
%TO.N,VDDA*%
X101534020Y-39091357D03*
X99180000Y-38780000D03*
X95130000Y-39490000D03*
X92260000Y-42435500D03*
%TO.N,+3V3*%
X101450000Y-36880000D03*
X96949511Y-54749511D03*
X94130000Y-39320000D03*
X95420000Y-40585500D03*
X101950000Y-46710000D03*
X99368201Y-37444496D03*
%TO.N,/L_EXTMODE*%
X93160000Y-39920000D03*
%TO.N,GND*%
X89880000Y-38660000D03*
X92250000Y-38510000D03*
X88180000Y-52470000D03*
X93780000Y-42100000D03*
X100560000Y-51870000D03*
%TO.N,GNDA*%
X91310000Y-37370000D03*
%TO.N,/L_CLK*%
X94723940Y-50340000D03*
X97679320Y-43181843D03*
%TO.N,Net-(J8-Pad1)*%
X91080000Y-51660000D03*
%TO.N,Net-(J8-Pad3)*%
X93240000Y-54720000D03*
X94940000Y-49040000D03*
X94841769Y-51461769D03*
%TO.N,Net-(J8-Pad4)*%
X99815500Y-48350000D03*
%TO.N,Net-(J8-Pad6)*%
X95595000Y-52375000D03*
X94400000Y-54750000D03*
%TD*%
D22*
%TO.N,VDDA*%
X101940011Y-41783202D02*
X101940011Y-43250011D01*
X101939520Y-41782710D02*
X101940011Y-41783202D01*
X101939520Y-39496857D02*
X101939520Y-41782710D01*
X101940011Y-43250011D02*
X103400000Y-44710000D01*
X101534020Y-39091357D02*
X101939520Y-39496857D01*
%TO.N,+3V3*%
X102350000Y-45660000D02*
X103400000Y-46710000D01*
X102350000Y-44300000D02*
X102350000Y-45660000D01*
X101490000Y-43440000D02*
X102350000Y-44300000D01*
X101490000Y-42570096D02*
X101490000Y-43440000D01*
X101490491Y-41969399D02*
X101490491Y-42569605D01*
X101490000Y-41968908D02*
X101490491Y-41969399D01*
X101490491Y-42569605D02*
X101490000Y-42570096D01*
X101490000Y-40364614D02*
X101490000Y-41968908D01*
X100809520Y-39684134D02*
X101490000Y-40364614D01*
X100809520Y-37520480D02*
X100809520Y-39684134D01*
X101450000Y-36880000D02*
X100809520Y-37520480D01*
%TO.N,/L_CS*%
X100360000Y-36880000D02*
X100350000Y-36870000D01*
X100360000Y-41604282D02*
X100360000Y-36880000D01*
X100765980Y-42010262D02*
X100360000Y-41604282D01*
X100765980Y-42269502D02*
X100765980Y-42010262D01*
%TO.N,GND*%
X87940000Y-44894282D02*
X87940000Y-45120000D01*
X89870000Y-42964282D02*
X87940000Y-44894282D01*
X89870000Y-38670000D02*
X89870000Y-42964282D01*
X89880000Y-38660000D02*
X89870000Y-38670000D01*
%TO.N,GNDA*%
X89150000Y-45910000D02*
X87940000Y-47120000D01*
X90830000Y-42640000D02*
X89150000Y-44320000D01*
X89150000Y-44320000D02*
X89150000Y-45910000D01*
X90830000Y-37850000D02*
X90830000Y-42640000D01*
X91310000Y-37370000D02*
X90830000Y-37850000D01*
%TO.N,VDDA*%
X89110000Y-46585718D02*
X89110000Y-49602500D01*
X89599520Y-46096198D02*
X89110000Y-46585718D01*
X89599520Y-44614762D02*
X89599520Y-46096198D01*
X91516198Y-42698084D02*
X89599520Y-44614762D01*
X89110000Y-49602500D02*
X87940000Y-50772500D01*
X91997416Y-42698084D02*
X91516198Y-42698084D01*
X92260000Y-42435500D02*
X91997416Y-42698084D01*
%TO.N,/L_CLK*%
X91190000Y-48071060D02*
X92158940Y-49040000D01*
X97657477Y-43160000D02*
X91690000Y-43160000D01*
X91690000Y-43160000D02*
X91190000Y-43660000D01*
X91190000Y-43660000D02*
X91190000Y-48071060D01*
X97679320Y-43181843D02*
X97657477Y-43160000D01*
%TO.N,/L_DAT*%
X89780000Y-49900000D02*
X90200000Y-50320000D01*
X92544282Y-50320000D02*
X93618940Y-51394658D01*
X90200000Y-50320000D02*
X92544282Y-50320000D01*
X90334500Y-47810000D02*
X89780000Y-48364500D01*
X89780000Y-48364500D02*
X89780000Y-49900000D01*
X93618940Y-51394658D02*
X93618940Y-51660000D01*
%TO.N,/L_CS*%
X98535000Y-51471060D02*
X97453940Y-50390000D01*
X95897971Y-49571911D02*
X95897971Y-48584881D01*
X95897971Y-48584881D02*
X95663778Y-48350688D01*
X96716060Y-50390000D02*
X95897971Y-49571911D01*
X97453940Y-50390000D02*
X96716060Y-50390000D01*
X98535000Y-51730000D02*
X98535000Y-51471060D01*
%TO.N,/L_EIN*%
X101074500Y-45080000D02*
X100340000Y-44345500D01*
X100340000Y-44345500D02*
X100340000Y-43625718D01*
X98140000Y-50370000D02*
X97075000Y-49305000D01*
X100215500Y-50160000D02*
X100005500Y-50370000D01*
X98764282Y-42050000D02*
X96275500Y-42050000D01*
X97075000Y-49305000D02*
X97075000Y-49040000D01*
X100340000Y-43625718D02*
X98764282Y-42050000D01*
X100005500Y-50370000D02*
X98140000Y-50370000D01*
%TO.N,VDDA*%
X95130000Y-39490000D02*
X95490480Y-39129520D01*
X95490480Y-39129520D02*
X98830480Y-39129520D01*
X98830480Y-39129520D02*
X99180000Y-38780000D01*
%TO.N,+3V3*%
X98132697Y-38680000D02*
X99368201Y-37444496D01*
X103632500Y-50160000D02*
X103592500Y-50200000D01*
X95420000Y-40585500D02*
X95200886Y-40585500D01*
X94130000Y-39514614D02*
X94130000Y-39320000D01*
X95775000Y-58825000D02*
X96949511Y-57650489D01*
X103632500Y-46942500D02*
X103400000Y-46710000D01*
X103592500Y-51840000D02*
X103592500Y-50200000D01*
X103400000Y-46710000D02*
X101950000Y-46710000D01*
X94130000Y-39320000D02*
X94770000Y-38680000D01*
X103632500Y-48560000D02*
X103632500Y-50160000D01*
X103632500Y-48560000D02*
X103632500Y-46942500D01*
X96949511Y-57650489D02*
X96949511Y-54749511D01*
X95200886Y-40585500D02*
X94130000Y-39514614D01*
X94770000Y-38680000D02*
X98132697Y-38680000D01*
%TO.N,/L_EXTMODE*%
X101900480Y-45409520D02*
X101000000Y-46310000D01*
X93160000Y-39920000D02*
X94550000Y-41310000D01*
X101900480Y-44550480D02*
X101900480Y-45409520D01*
X100041469Y-42691469D02*
X101900480Y-44550480D01*
X94550000Y-41310000D02*
X99430000Y-41310000D01*
X101000000Y-47752500D02*
X101807500Y-48560000D01*
X99430000Y-41310000D02*
X100041469Y-41921469D01*
X100041469Y-41921469D02*
X100041469Y-42691469D01*
X101000000Y-46310000D02*
X101000000Y-47752500D01*
%TO.N,GND*%
X94409511Y-58338501D02*
X95775000Y-56973012D01*
X101867500Y-51840000D02*
X101867500Y-50200000D01*
X92060489Y-59311499D02*
X92748501Y-59999511D01*
X88180000Y-52470000D02*
X90800000Y-52470000D01*
X92060489Y-53730489D02*
X92060489Y-59311499D01*
X100590000Y-51840000D02*
X101867500Y-51840000D01*
X95775000Y-56973012D02*
X95775000Y-56285000D01*
X100560000Y-51870000D02*
X100590000Y-51840000D01*
X92748501Y-59999511D02*
X93721499Y-59999511D01*
X90800000Y-52470000D02*
X92060489Y-53730489D01*
X93721499Y-59999511D02*
X94409511Y-59311499D01*
X94409511Y-59311499D02*
X94409511Y-58338501D01*
%TO.N,GNDA*%
X87940000Y-47120000D02*
X87940000Y-49047500D01*
%TO.N,/L_CLK*%
X94723940Y-50340000D02*
X93200000Y-50340000D01*
X92158940Y-49298940D02*
X92158940Y-49040000D01*
X93200000Y-50340000D02*
X92158940Y-49298940D01*
%TO.N,Net-(J8-Pad1)*%
X98315000Y-56285000D02*
X98315000Y-55090386D01*
X96676029Y-53451415D02*
X93551415Y-53451415D01*
X93551415Y-53451415D02*
X92168940Y-52068940D01*
X92168940Y-51660000D02*
X91080000Y-51660000D01*
X92168940Y-52068940D02*
X92168940Y-51660000D01*
X98315000Y-55090386D02*
X96676029Y-53451415D01*
%TO.N,Net-(J8-Pad3)*%
X95448451Y-49548451D02*
X94940000Y-49040000D01*
X93240000Y-54720000D02*
X93235000Y-54725000D01*
X95448451Y-50855087D02*
X95448451Y-49548451D01*
X93235000Y-54725000D02*
X93235000Y-56285000D01*
X94940000Y-49040000D02*
X93608940Y-49040000D01*
X94841769Y-51461769D02*
X95448451Y-50855087D01*
%TO.N,Net-(J8-Pad4)*%
X99125500Y-49040000D02*
X99815500Y-48350000D01*
X99560000Y-57580000D02*
X99560000Y-51840114D01*
X98525000Y-49040000D02*
X99125500Y-49040000D01*
X100940011Y-50460103D02*
X100940011Y-49474511D01*
X99560000Y-51840114D02*
X100940011Y-50460103D01*
X100940011Y-49474511D02*
X99815500Y-48350000D01*
X98315000Y-58825000D02*
X99560000Y-57580000D01*
%TO.N,Net-(J8-Pad6)*%
X94409511Y-57650489D02*
X93235000Y-58825000D01*
X96240000Y-51730000D02*
X95595000Y-52375000D01*
X97085000Y-51730000D02*
X96240000Y-51730000D01*
X94409511Y-54759511D02*
X94409511Y-57650489D01*
X94400000Y-54750000D02*
X94409511Y-54759511D01*
%TD*%
%TA.AperFunction,Conductor*%
%TO.N,GND*%
G36*
X97127026Y-59500144D02*
G01*
X97154875Y-59531994D01*
X97214987Y-59630088D01*
X97361250Y-59798938D01*
X97533126Y-59941632D01*
X97726000Y-60054338D01*
X97934692Y-60134030D01*
X97939760Y-60135061D01*
X97939763Y-60135062D01*
X98047017Y-60156883D01*
X98153597Y-60178567D01*
X98158772Y-60178757D01*
X98158774Y-60178757D01*
X98371673Y-60186564D01*
X98371677Y-60186564D01*
X98376837Y-60186753D01*
X98381957Y-60186097D01*
X98381959Y-60186097D01*
X98593288Y-60159025D01*
X98593289Y-60159025D01*
X98598416Y-60158368D01*
X98603366Y-60156883D01*
X98807429Y-60095661D01*
X98807434Y-60095659D01*
X98812384Y-60094174D01*
X99012994Y-59995896D01*
X99194860Y-59866173D01*
X99353096Y-59708489D01*
X99393677Y-59652014D01*
X99449672Y-59608366D01*
X99520375Y-59601920D01*
X99583339Y-59634722D01*
X99618574Y-59696359D01*
X99622000Y-59725540D01*
X99622000Y-61000671D01*
X99620500Y-61020055D01*
X99616814Y-61043729D01*
X99617978Y-61052629D01*
X99617868Y-61061605D01*
X99617050Y-61061595D01*
X99616759Y-61083086D01*
X99611809Y-61114340D01*
X99599627Y-61151833D01*
X99579111Y-61192098D01*
X99555939Y-61223990D01*
X99523990Y-61255939D01*
X99492098Y-61279111D01*
X99451833Y-61299627D01*
X99414341Y-61311809D01*
X99383941Y-61316624D01*
X99364232Y-61318054D01*
X99356269Y-61316814D01*
X99324748Y-61320936D01*
X99308410Y-61322000D01*
X92259329Y-61322000D01*
X92239944Y-61320500D01*
X92225142Y-61318195D01*
X92225140Y-61318195D01*
X92216271Y-61316814D01*
X92207371Y-61317978D01*
X92198395Y-61317868D01*
X92198405Y-61317050D01*
X92176914Y-61316759D01*
X92145660Y-61311809D01*
X92108167Y-61299627D01*
X92067902Y-61279111D01*
X92036010Y-61255939D01*
X92004061Y-61223990D01*
X91980889Y-61192098D01*
X91960373Y-61151833D01*
X91948191Y-61114341D01*
X91943376Y-61083941D01*
X91941946Y-61064232D01*
X91943186Y-61056269D01*
X91939064Y-61024747D01*
X91938000Y-61008410D01*
X91938000Y-59740581D01*
X91958002Y-59672460D01*
X92011658Y-59625967D01*
X92081932Y-59615863D01*
X92146512Y-59645357D01*
X92159237Y-59658083D01*
X92277865Y-59795031D01*
X92277869Y-59795035D01*
X92281250Y-59798938D01*
X92453126Y-59941632D01*
X92646000Y-60054338D01*
X92854692Y-60134030D01*
X92859760Y-60135061D01*
X92859763Y-60135062D01*
X92967017Y-60156883D01*
X93073597Y-60178567D01*
X93078772Y-60178757D01*
X93078774Y-60178757D01*
X93291673Y-60186564D01*
X93291677Y-60186564D01*
X93296837Y-60186753D01*
X93301957Y-60186097D01*
X93301959Y-60186097D01*
X93513288Y-60159025D01*
X93513289Y-60159025D01*
X93518416Y-60158368D01*
X93523366Y-60156883D01*
X93727429Y-60095661D01*
X93727434Y-60095659D01*
X93732384Y-60094174D01*
X93932994Y-59995896D01*
X94114860Y-59866173D01*
X94273096Y-59708489D01*
X94403453Y-59527077D01*
X94404776Y-59528028D01*
X94451645Y-59484857D01*
X94521580Y-59472625D01*
X94587026Y-59500144D01*
X94614875Y-59531994D01*
X94674987Y-59630088D01*
X94821250Y-59798938D01*
X94993126Y-59941632D01*
X95186000Y-60054338D01*
X95394692Y-60134030D01*
X95399760Y-60135061D01*
X95399763Y-60135062D01*
X95507017Y-60156883D01*
X95613597Y-60178567D01*
X95618772Y-60178757D01*
X95618774Y-60178757D01*
X95831673Y-60186564D01*
X95831677Y-60186564D01*
X95836837Y-60186753D01*
X95841957Y-60186097D01*
X95841959Y-60186097D01*
X96053288Y-60159025D01*
X96053289Y-60159025D01*
X96058416Y-60158368D01*
X96063366Y-60156883D01*
X96267429Y-60095661D01*
X96267434Y-60095659D01*
X96272384Y-60094174D01*
X96472994Y-59995896D01*
X96654860Y-59866173D01*
X96813096Y-59708489D01*
X96943453Y-59527077D01*
X96944776Y-59528028D01*
X96991645Y-59484857D01*
X97061580Y-59472625D01*
X97127026Y-59500144D01*
G37*
%TD.AperFunction*%
%TA.AperFunction,Conductor*%
G36*
X96134054Y-54104917D02*
G01*
X96180547Y-54158573D01*
X96190651Y-54228847D01*
X96175052Y-54273915D01*
X96128394Y-54354729D01*
X96114984Y-54377955D01*
X96055969Y-54559583D01*
X96036007Y-54749511D01*
X96036697Y-54756076D01*
X96048855Y-54871754D01*
X96043830Y-54922441D01*
X96029000Y-54969989D01*
X96029000Y-56413000D01*
X96008998Y-56481121D01*
X95955342Y-56527614D01*
X95903000Y-56539000D01*
X95647000Y-56539000D01*
X95578879Y-56518998D01*
X95532386Y-56465342D01*
X95521000Y-56413000D01*
X95521000Y-54968102D01*
X95517082Y-54954758D01*
X95502806Y-54952771D01*
X95464325Y-54958660D01*
X95460249Y-54959631D01*
X95389348Y-54955960D01*
X95331685Y-54914541D01*
X95305570Y-54848521D01*
X95305738Y-54823891D01*
X95312814Y-54756565D01*
X95313504Y-54750000D01*
X95296781Y-54590887D01*
X95294232Y-54566635D01*
X95294232Y-54566633D01*
X95293542Y-54560072D01*
X95234527Y-54378444D01*
X95230941Y-54372232D01*
X95174177Y-54273915D01*
X95157439Y-54204920D01*
X95180659Y-54137828D01*
X95236466Y-54093941D01*
X95283296Y-54084915D01*
X96065933Y-54084915D01*
X96134054Y-54104917D01*
G37*
%TD.AperFunction*%
%TA.AperFunction,Conductor*%
G36*
X91664477Y-52923087D02*
G01*
X91668940Y-52923729D01*
X92075634Y-52923729D01*
X92143755Y-52943731D01*
X92164730Y-52960634D01*
X92895602Y-53691507D01*
X92929627Y-53753819D01*
X92924562Y-53824635D01*
X92882015Y-53881470D01*
X92857755Y-53895709D01*
X92789278Y-53926197D01*
X92789276Y-53926198D01*
X92783248Y-53928882D01*
X92628747Y-54041134D01*
X92624326Y-54046044D01*
X92624325Y-54046045D01*
X92523005Y-54158573D01*
X92500960Y-54183056D01*
X92405473Y-54348444D01*
X92346458Y-54530072D01*
X92345768Y-54536633D01*
X92345768Y-54536635D01*
X92340066Y-54590887D01*
X92326496Y-54720000D01*
X92346458Y-54909928D01*
X92404551Y-55088717D01*
X92405473Y-55091556D01*
X92404954Y-55091725D01*
X92413805Y-55157752D01*
X92383697Y-55222049D01*
X92364917Y-55239392D01*
X92329965Y-55265635D01*
X92326393Y-55269373D01*
X92198057Y-55403669D01*
X92175629Y-55427138D01*
X92168088Y-55438193D01*
X92113178Y-55483195D01*
X92042654Y-55491368D01*
X91978906Y-55460114D01*
X91942176Y-55399357D01*
X91938000Y-55367189D01*
X91938000Y-54103206D01*
X91939746Y-54082302D01*
X91942264Y-54067334D01*
X91943071Y-54062538D01*
X91943224Y-54049999D01*
X91941805Y-54040091D01*
X91941038Y-54034733D01*
X91940154Y-54026758D01*
X91932756Y-53932763D01*
X91926076Y-53847889D01*
X91924922Y-53843082D01*
X91924921Y-53843076D01*
X91879903Y-53655567D01*
X91878748Y-53650755D01*
X91801165Y-53463452D01*
X91695236Y-53290592D01*
X91563570Y-53136430D01*
X91563592Y-53136411D01*
X91530277Y-53075400D01*
X91535342Y-53004585D01*
X91577889Y-52947749D01*
X91644409Y-52922938D01*
X91662390Y-52922938D01*
X91664477Y-52923087D01*
G37*
%TD.AperFunction*%
%TA.AperFunction,Conductor*%
G36*
X102063621Y-49966002D02*
G01*
X102110114Y-50019658D01*
X102121500Y-50072000D01*
X102121500Y-51968000D01*
X102101498Y-52036121D01*
X102047842Y-52082614D01*
X101995500Y-52094000D01*
X100840115Y-52094000D01*
X100824876Y-52098475D01*
X100823671Y-52099865D01*
X100822000Y-52107548D01*
X100822000Y-52123766D01*
X100822337Y-52130282D01*
X100832075Y-52224132D01*
X100834968Y-52237528D01*
X100885488Y-52388953D01*
X100891653Y-52402115D01*
X100975427Y-52537492D01*
X100988598Y-52554111D01*
X101015235Y-52619922D01*
X101002064Y-52689686D01*
X100953266Y-52741254D01*
X100907715Y-52757102D01*
X100894735Y-52758961D01*
X100886758Y-52759846D01*
X100868755Y-52761263D01*
X100707889Y-52773924D01*
X100703082Y-52775078D01*
X100703076Y-52775079D01*
X100580217Y-52804575D01*
X100510755Y-52821252D01*
X100506184Y-52823145D01*
X100506182Y-52823146D01*
X100466822Y-52839449D01*
X100367716Y-52880500D01*
X100297128Y-52888089D01*
X100233641Y-52856310D01*
X100197414Y-52795252D01*
X100193500Y-52764091D01*
X100193500Y-52154708D01*
X100213502Y-52086587D01*
X100230405Y-52065613D01*
X100683796Y-51612222D01*
X100746108Y-51578196D01*
X100799674Y-51578196D01*
X100835548Y-51586000D01*
X101595385Y-51586000D01*
X101610624Y-51581525D01*
X101611829Y-51580135D01*
X101613500Y-51572452D01*
X101613500Y-50072000D01*
X101633502Y-50003879D01*
X101687158Y-49957386D01*
X101739500Y-49946000D01*
X101995500Y-49946000D01*
X102063621Y-49966002D01*
G37*
%TD.AperFunction*%
%TA.AperFunction,Conductor*%
G36*
X89340282Y-50372288D02*
G01*
X89385345Y-50401249D01*
X89696343Y-50712247D01*
X89703887Y-50720537D01*
X89708000Y-50727018D01*
X89713777Y-50732443D01*
X89757667Y-50773658D01*
X89760509Y-50776413D01*
X89780231Y-50796135D01*
X89783373Y-50798572D01*
X89783433Y-50798619D01*
X89792445Y-50806317D01*
X89812567Y-50825212D01*
X89824679Y-50836586D01*
X89831622Y-50840403D01*
X89842431Y-50846345D01*
X89858953Y-50857198D01*
X89874959Y-50869614D01*
X89882237Y-50872764D01*
X89882238Y-50872764D01*
X89915537Y-50887174D01*
X89926187Y-50892391D01*
X89964940Y-50913695D01*
X89972615Y-50915666D01*
X89972616Y-50915666D01*
X89984562Y-50918733D01*
X90003267Y-50925137D01*
X90021855Y-50933181D01*
X90029678Y-50934420D01*
X90029688Y-50934423D01*
X90065524Y-50940099D01*
X90077144Y-50942505D01*
X90112289Y-50951528D01*
X90119970Y-50953500D01*
X90140224Y-50953500D01*
X90159934Y-50955051D01*
X90179943Y-50958220D01*
X90207879Y-50955579D01*
X90277579Y-50969081D01*
X90328916Y-51018123D01*
X90345589Y-51087134D01*
X90328856Y-51144020D01*
X90278445Y-51231335D01*
X90245473Y-51288444D01*
X90186458Y-51470072D01*
X90185768Y-51476633D01*
X90185768Y-51476635D01*
X90175094Y-51578196D01*
X90166496Y-51660000D01*
X90167186Y-51666565D01*
X90182336Y-51810705D01*
X90186458Y-51849928D01*
X90245473Y-52031556D01*
X90340960Y-52196944D01*
X90468747Y-52338866D01*
X90623248Y-52451118D01*
X90629276Y-52453802D01*
X90629278Y-52453803D01*
X90784938Y-52523107D01*
X90839034Y-52569087D01*
X90859683Y-52637014D01*
X90840331Y-52705323D01*
X90787120Y-52752324D01*
X90723802Y-52763825D01*
X90691253Y-52761263D01*
X90680234Y-52759906D01*
X90667331Y-52757735D01*
X90667330Y-52757735D01*
X90662540Y-52756929D01*
X90656301Y-52756853D01*
X90654860Y-52756835D01*
X90654856Y-52756835D01*
X90650001Y-52756776D01*
X90628146Y-52759906D01*
X90622413Y-52760727D01*
X90604550Y-52762000D01*
X87759329Y-52762000D01*
X87739944Y-52760500D01*
X87725142Y-52758195D01*
X87725140Y-52758195D01*
X87716271Y-52756814D01*
X87707371Y-52757978D01*
X87698395Y-52757868D01*
X87698405Y-52757050D01*
X87676914Y-52756759D01*
X87645660Y-52751809D01*
X87608167Y-52739627D01*
X87567902Y-52719111D01*
X87536010Y-52695939D01*
X87504061Y-52663990D01*
X87480889Y-52632098D01*
X87460373Y-52591833D01*
X87448191Y-52554341D01*
X87443376Y-52523941D01*
X87441946Y-52504232D01*
X87443186Y-52496269D01*
X87439064Y-52464747D01*
X87438000Y-52448410D01*
X87438000Y-51936049D01*
X87458002Y-51867928D01*
X87511658Y-51821435D01*
X87576841Y-51810705D01*
X87649726Y-51818172D01*
X87649727Y-51818172D01*
X87652928Y-51818500D01*
X88227072Y-51818500D01*
X88230318Y-51818163D01*
X88230322Y-51818163D01*
X88324235Y-51808419D01*
X88324239Y-51808418D01*
X88331093Y-51807707D01*
X88337629Y-51805526D01*
X88337631Y-51805526D01*
X88489159Y-51754972D01*
X88496107Y-51752654D01*
X88644031Y-51661116D01*
X88719016Y-51586000D01*
X88761758Y-51543184D01*
X88761762Y-51543179D01*
X88766929Y-51538003D01*
X88804757Y-51476635D01*
X88854369Y-51396150D01*
X88854370Y-51396148D01*
X88858209Y-51389920D01*
X88912974Y-51224809D01*
X88923500Y-51122072D01*
X88923500Y-50737094D01*
X88943502Y-50668973D01*
X88960405Y-50647999D01*
X89207155Y-50401249D01*
X89269467Y-50367223D01*
X89340282Y-50372288D01*
G37*
%TD.AperFunction*%
%TA.AperFunction,Conductor*%
G36*
X99688763Y-36028002D02*
G01*
X99735256Y-36081658D01*
X99745360Y-36151932D01*
X99714279Y-36218308D01*
X99610960Y-36333056D01*
X99607661Y-36338769D01*
X99607658Y-36338774D01*
X99530165Y-36472996D01*
X99478782Y-36521989D01*
X99421046Y-36535996D01*
X99272714Y-36535996D01*
X99266262Y-36537368D01*
X99266257Y-36537368D01*
X99179313Y-36555849D01*
X99085913Y-36575702D01*
X99079883Y-36578387D01*
X99079882Y-36578387D01*
X98917479Y-36650693D01*
X98917477Y-36650694D01*
X98911449Y-36653378D01*
X98756948Y-36765630D01*
X98752527Y-36770540D01*
X98752526Y-36770541D01*
X98700657Y-36828148D01*
X98629161Y-36907552D01*
X98533674Y-37072940D01*
X98474659Y-37254568D01*
X98458420Y-37409079D01*
X98457294Y-37419788D01*
X98430281Y-37485445D01*
X98421079Y-37495714D01*
X97907196Y-38009596D01*
X97844884Y-38043621D01*
X97818101Y-38046500D01*
X94848768Y-38046500D01*
X94837585Y-38045973D01*
X94830092Y-38044298D01*
X94822166Y-38044547D01*
X94822165Y-38044547D01*
X94762002Y-38046438D01*
X94758044Y-38046500D01*
X94730144Y-38046500D01*
X94726154Y-38047004D01*
X94714320Y-38047936D01*
X94670111Y-38049326D01*
X94662495Y-38051539D01*
X94662493Y-38051539D01*
X94650652Y-38054979D01*
X94631293Y-38058988D01*
X94629983Y-38059154D01*
X94611203Y-38061526D01*
X94603837Y-38064442D01*
X94603831Y-38064444D01*
X94570098Y-38077800D01*
X94558868Y-38081645D01*
X94524017Y-38091770D01*
X94516407Y-38093981D01*
X94509584Y-38098016D01*
X94498966Y-38104295D01*
X94481213Y-38112992D01*
X94473568Y-38116019D01*
X94462383Y-38120448D01*
X94455968Y-38125109D01*
X94426612Y-38146437D01*
X94416695Y-38152951D01*
X94378638Y-38175458D01*
X94364317Y-38189779D01*
X94349284Y-38202619D01*
X94332893Y-38214528D01*
X94311684Y-38240166D01*
X94304708Y-38248598D01*
X94296718Y-38257378D01*
X94179501Y-38374595D01*
X94117189Y-38408621D01*
X94090406Y-38411500D01*
X94034513Y-38411500D01*
X94028061Y-38412872D01*
X94028056Y-38412872D01*
X93941113Y-38431353D01*
X93847712Y-38451206D01*
X93841682Y-38453891D01*
X93841681Y-38453891D01*
X93679278Y-38526197D01*
X93679276Y-38526198D01*
X93673248Y-38528882D01*
X93518747Y-38641134D01*
X93390960Y-38783056D01*
X93295473Y-38948444D01*
X93292824Y-38946915D01*
X93255350Y-38990914D01*
X93186329Y-39011500D01*
X93064513Y-39011500D01*
X93058061Y-39012872D01*
X93058056Y-39012872D01*
X92971112Y-39031353D01*
X92877712Y-39051206D01*
X92871682Y-39053891D01*
X92871681Y-39053891D01*
X92709278Y-39126197D01*
X92709276Y-39126198D01*
X92703248Y-39128882D01*
X92548747Y-39241134D01*
X92420960Y-39383056D01*
X92325473Y-39548444D01*
X92266458Y-39730072D01*
X92265768Y-39736633D01*
X92265768Y-39736635D01*
X92260754Y-39784338D01*
X92246496Y-39920000D01*
X92247186Y-39926565D01*
X92260609Y-40054274D01*
X92266458Y-40109928D01*
X92325473Y-40291556D01*
X92420960Y-40456944D01*
X92548747Y-40598866D01*
X92703248Y-40711118D01*
X92709276Y-40713802D01*
X92709278Y-40713803D01*
X92714898Y-40716305D01*
X92877712Y-40788794D01*
X92971113Y-40808647D01*
X93058056Y-40827128D01*
X93058061Y-40827128D01*
X93064513Y-40828500D01*
X93120405Y-40828500D01*
X93188526Y-40848502D01*
X93209501Y-40865405D01*
X94046353Y-41702258D01*
X94053887Y-41710537D01*
X94058000Y-41717018D01*
X94100187Y-41756634D01*
X94107651Y-41763643D01*
X94110493Y-41766398D01*
X94130230Y-41786135D01*
X94133427Y-41788615D01*
X94142447Y-41796318D01*
X94174679Y-41826586D01*
X94181625Y-41830405D01*
X94181628Y-41830407D01*
X94192434Y-41836348D01*
X94208953Y-41847199D01*
X94224959Y-41859614D01*
X94232228Y-41862759D01*
X94232232Y-41862762D01*
X94265537Y-41877174D01*
X94276187Y-41882391D01*
X94314940Y-41903695D01*
X94322615Y-41905666D01*
X94322616Y-41905666D01*
X94334562Y-41908733D01*
X94353267Y-41915137D01*
X94371855Y-41923181D01*
X94379678Y-41924420D01*
X94379688Y-41924423D01*
X94415524Y-41930099D01*
X94427144Y-41932505D01*
X94462289Y-41941528D01*
X94469970Y-41943500D01*
X94490224Y-41943500D01*
X94509934Y-41945051D01*
X94529943Y-41948220D01*
X94537835Y-41947474D01*
X94573961Y-41944059D01*
X94585819Y-41943500D01*
X95237351Y-41943500D01*
X95305472Y-41963502D01*
X95351965Y-42017158D01*
X95362661Y-42056329D01*
X95363462Y-42063944D01*
X95381958Y-42239928D01*
X95383998Y-42246206D01*
X95421480Y-42361564D01*
X95423508Y-42432531D01*
X95386845Y-42493329D01*
X95323133Y-42524655D01*
X95301647Y-42526500D01*
X93296520Y-42526500D01*
X93228399Y-42506498D01*
X93181906Y-42452842D01*
X93171210Y-42413671D01*
X93154232Y-42252135D01*
X93154232Y-42252133D01*
X93153542Y-42245572D01*
X93094527Y-42063944D01*
X93090131Y-42056329D01*
X93036537Y-41963502D01*
X92999040Y-41898556D01*
X92984490Y-41882396D01*
X92875675Y-41761545D01*
X92875674Y-41761544D01*
X92871253Y-41756634D01*
X92716752Y-41644382D01*
X92710724Y-41641698D01*
X92710722Y-41641697D01*
X92548319Y-41569391D01*
X92548318Y-41569391D01*
X92542288Y-41566706D01*
X92448888Y-41546853D01*
X92361944Y-41528372D01*
X92361939Y-41528372D01*
X92355487Y-41527000D01*
X92164513Y-41527000D01*
X92158061Y-41528372D01*
X92158056Y-41528372D01*
X92071112Y-41546853D01*
X91977712Y-41566706D01*
X91971682Y-41569391D01*
X91971681Y-41569391D01*
X91809278Y-41641697D01*
X91809276Y-41641698D01*
X91803248Y-41644382D01*
X91797907Y-41648262D01*
X91797906Y-41648263D01*
X91663561Y-41745871D01*
X91596693Y-41769729D01*
X91527542Y-41753649D01*
X91478062Y-41702735D01*
X91463500Y-41643935D01*
X91463500Y-38368202D01*
X91483502Y-38300081D01*
X91537158Y-38253588D01*
X91563303Y-38244955D01*
X91592288Y-38238794D01*
X91649897Y-38213145D01*
X91760722Y-38163803D01*
X91760724Y-38163802D01*
X91766752Y-38161118D01*
X91782157Y-38149926D01*
X91862201Y-38091770D01*
X91921253Y-38048866D01*
X92049040Y-37906944D01*
X92112278Y-37797413D01*
X92141223Y-37747279D01*
X92141224Y-37747278D01*
X92144527Y-37741556D01*
X92203542Y-37559928D01*
X92207218Y-37524959D01*
X92222814Y-37376565D01*
X92223504Y-37370000D01*
X92203542Y-37180072D01*
X92144527Y-36998444D01*
X92049040Y-36833056D01*
X91988330Y-36765630D01*
X91925675Y-36696045D01*
X91925674Y-36696044D01*
X91921253Y-36691134D01*
X91766752Y-36578882D01*
X91760724Y-36576198D01*
X91760722Y-36576197D01*
X91598319Y-36503891D01*
X91598318Y-36503891D01*
X91592288Y-36501206D01*
X91498887Y-36481353D01*
X91411944Y-36462872D01*
X91411939Y-36462872D01*
X91405487Y-36461500D01*
X91214513Y-36461500D01*
X91208061Y-36462872D01*
X91208056Y-36462872D01*
X91121113Y-36481353D01*
X91027712Y-36501206D01*
X91021682Y-36503891D01*
X91021681Y-36503891D01*
X90859278Y-36576197D01*
X90859276Y-36576198D01*
X90853248Y-36578882D01*
X90698747Y-36691134D01*
X90694326Y-36696044D01*
X90694325Y-36696045D01*
X90631671Y-36765630D01*
X90570960Y-36833056D01*
X90475473Y-36998444D01*
X90416458Y-37180072D01*
X90415768Y-37186633D01*
X90415768Y-37186635D01*
X90399093Y-37345292D01*
X90372080Y-37410949D01*
X90362878Y-37421217D01*
X90353865Y-37430230D01*
X90351385Y-37433427D01*
X90343682Y-37442447D01*
X90313414Y-37474679D01*
X90309595Y-37481625D01*
X90309593Y-37481628D01*
X90303652Y-37492434D01*
X90292801Y-37508953D01*
X90280386Y-37524959D01*
X90277241Y-37532228D01*
X90277238Y-37532232D01*
X90262826Y-37565537D01*
X90257609Y-37576187D01*
X90236305Y-37614940D01*
X90234334Y-37622615D01*
X90234334Y-37622616D01*
X90231267Y-37634562D01*
X90224863Y-37653266D01*
X90216819Y-37671855D01*
X90215580Y-37679678D01*
X90215577Y-37679688D01*
X90209901Y-37715524D01*
X90207495Y-37727144D01*
X90196500Y-37769970D01*
X90196500Y-37790224D01*
X90194949Y-37809934D01*
X90191780Y-37829943D01*
X90192526Y-37837835D01*
X90195941Y-37873961D01*
X90196500Y-37885819D01*
X90196500Y-42325405D01*
X90176498Y-42393526D01*
X90159595Y-42414500D01*
X90003095Y-42571000D01*
X89940783Y-42605026D01*
X89869968Y-42599961D01*
X89813132Y-42557414D01*
X89788321Y-42490894D01*
X89788000Y-42481905D01*
X89788000Y-36329329D01*
X89789500Y-36309944D01*
X89791805Y-36295142D01*
X89791805Y-36295140D01*
X89793186Y-36286271D01*
X89792022Y-36277371D01*
X89792132Y-36268395D01*
X89792950Y-36268405D01*
X89793241Y-36246914D01*
X89798191Y-36215660D01*
X89810373Y-36178167D01*
X89830889Y-36137902D01*
X89854061Y-36106010D01*
X89886010Y-36074061D01*
X89917902Y-36050889D01*
X89958167Y-36030373D01*
X89995659Y-36018191D01*
X90026059Y-36013376D01*
X90045768Y-36011946D01*
X90053731Y-36013186D01*
X90085253Y-36009064D01*
X90101590Y-36008000D01*
X99620642Y-36008000D01*
X99688763Y-36028002D01*
G37*
%TD.AperFunction*%
%TD*%
M02*
