%TF.GenerationSoftware,KiCad,Pcbnew,(6.0.0)*%
%TF.CreationDate,2022-06-09T20:52:26+02:00*%
%TF.ProjectId,TPS42-LCD-Shield,54505334-322d-44c4-9344-2d536869656c,rev?*%
%TF.SameCoordinates,Original*%
%TF.FileFunction,Copper,L2,Bot*%
%TF.FilePolarity,Positive*%
%FSLAX46Y46*%
G04 Gerber Fmt 4.6, Leading zero omitted, Abs format (unit mm)*
G04 Created by KiCad (PCBNEW (6.0.0)) date 2022-06-09 20:52:26*
%MOMM*%
%LPD*%
G01*
G04 APERTURE LIST*
G04 Aperture macros list*
%AMFreePoly0*
4,1,6,1.000000,0.000000,0.500000,-0.750000,-0.500000,-0.750000,-0.500000,0.750000,0.500000,0.750000,1.000000,0.000000,1.000000,0.000000,$1*%
%AMFreePoly1*
4,1,6,0.500000,-0.750000,-0.650000,-0.750000,-0.150000,0.000000,-0.650000,0.750000,0.500000,0.750000,0.500000,-0.750000,0.500000,-0.750000,$1*%
G04 Aperture macros list end*
%TA.AperFunction,SMDPad,CuDef*%
%ADD10R,0.300000X1.600000*%
%TD*%
%TA.AperFunction,SMDPad,CuDef*%
%ADD11R,1.800000X2.200000*%
%TD*%
%TA.AperFunction,ComponentPad*%
%ADD12C,1.700000*%
%TD*%
%TA.AperFunction,ComponentPad*%
%ADD13O,1.700000X1.700000*%
%TD*%
%TA.AperFunction,SMDPad,CuDef*%
%ADD14FreePoly0,180.000000*%
%TD*%
%TA.AperFunction,SMDPad,CuDef*%
%ADD15FreePoly1,180.000000*%
%TD*%
%TA.AperFunction,SMDPad,CuDef*%
%ADD16FreePoly0,0.000000*%
%TD*%
%TA.AperFunction,SMDPad,CuDef*%
%ADD17FreePoly1,0.000000*%
%TD*%
%TA.AperFunction,ViaPad*%
%ADD18C,0.800000*%
%TD*%
%TA.AperFunction,Conductor*%
%ADD19C,0.250000*%
%TD*%
G04 APERTURE END LIST*
D10*
%TO.P,J7,1,Pin_1*%
%TO.N,/L_CLK*%
X98030000Y-37170000D03*
%TO.P,J7,2,Pin_2*%
%TO.N,/L_DAT*%
X97530000Y-37170000D03*
%TO.P,J7,3,Pin_3*%
%TO.N,/L_CS*%
X97030000Y-37170000D03*
%TO.P,J7,4,Pin_4*%
%TO.N,/L_EIN*%
X96530000Y-37170000D03*
%TO.P,J7,5,Pin_5*%
%TO.N,+3V3*%
X96030000Y-37170000D03*
%TO.P,J7,6,Pin_6*%
%TO.N,VDDA*%
X95530000Y-37170000D03*
%TO.P,J7,7,Pin_7*%
%TO.N,+3V3*%
X95030000Y-37170000D03*
%TO.P,J7,8,Pin_8*%
%TO.N,/L_EXTMODE*%
X94530000Y-37170000D03*
%TO.P,J7,9,Pin_9*%
%TO.N,GND*%
X94030000Y-37170000D03*
%TO.P,J7,10,Pin_10*%
%TO.N,GNDA*%
X93530000Y-37170000D03*
D11*
%TO.P,J7,MP*%
%TO.N,N/C*%
X91630000Y-40570000D03*
X99930000Y-40570000D03*
%TD*%
D12*
%TO.P,J8,1,Pin_1*%
%TO.N,Net-(J8-Pad1)*%
X98315000Y-56285000D03*
D13*
%TO.P,J8,2,Pin_2*%
%TO.N,GND*%
X95775000Y-56285000D03*
%TO.P,J8,3,Pin_3*%
%TO.N,Net-(J8-Pad3)*%
X93235000Y-56285000D03*
%TO.P,J8,4,Pin_4*%
%TO.N,Net-(J8-Pad4)*%
X98315000Y-58825000D03*
%TO.P,J8,5,Pin_5*%
%TO.N,+3V3*%
X95775000Y-58825000D03*
%TO.P,J8,6,Pin_6*%
%TO.N,Net-(J8-Pad6)*%
X93235000Y-58825000D03*
%TD*%
D14*
%TO.P,JP6,1,A*%
%TO.N,Net-(J8-Pad4)*%
X98525000Y-49040000D03*
D15*
%TO.P,JP6,2,B*%
%TO.N,/L_CS*%
X97075000Y-49040000D03*
%TD*%
D16*
%TO.P,JP8,1,A*%
%TO.N,Net-(J8-Pad1)*%
X92168940Y-51660000D03*
D17*
%TO.P,JP8,2,B*%
%TO.N,/L_CLK*%
X93618940Y-51660000D03*
%TD*%
D16*
%TO.P,JP5,1,A*%
%TO.N,Net-(J8-Pad6)*%
X97085000Y-51730000D03*
D17*
%TO.P,JP5,2,B*%
%TO.N,/L_EIN*%
X98535000Y-51730000D03*
%TD*%
D14*
%TO.P,JP7,1,A*%
%TO.N,Net-(J8-Pad3)*%
X93608940Y-49040000D03*
D15*
%TO.P,JP7,2,B*%
%TO.N,/L_DAT*%
X92158940Y-49040000D03*
%TD*%
D18*
%TO.N,/L_DAT*%
X90334500Y-47810000D03*
%TO.N,/L_CS*%
X100350000Y-36870000D03*
X95663778Y-48350688D03*
X100765980Y-42269502D03*
%TO.N,/L_EIN*%
X101074500Y-45080000D03*
X96275500Y-42050000D03*
X100215500Y-50160000D03*
%TO.N,VDDA*%
X101534020Y-39091357D03*
X99180000Y-38780000D03*
X95130000Y-39490000D03*
X92260000Y-42435500D03*
%TO.N,+3V3*%
X101450000Y-36880000D03*
X96949511Y-54749511D03*
X94130000Y-39320000D03*
X95420000Y-40585500D03*
X101950000Y-46710000D03*
X99368201Y-37444496D03*
%TO.N,/L_EXTMODE*%
X93160000Y-39920000D03*
%TO.N,GND*%
X89880000Y-38660000D03*
X92250000Y-38510000D03*
X88180000Y-52470000D03*
X93780000Y-42100000D03*
X100560000Y-51870000D03*
%TO.N,GNDA*%
X91310000Y-37370000D03*
%TO.N,/L_CLK*%
X94723940Y-50340000D03*
X97679320Y-43181843D03*
%TO.N,Net-(J8-Pad1)*%
X91080000Y-51660000D03*
%TO.N,Net-(J8-Pad3)*%
X93240000Y-54720000D03*
X94940000Y-49040000D03*
X94841769Y-51461769D03*
%TO.N,Net-(J8-Pad4)*%
X99815500Y-48350000D03*
%TO.N,Net-(J8-Pad6)*%
X95595000Y-52375000D03*
X94400000Y-54750000D03*
%TD*%
D19*
%TO.N,GND*%
X94030000Y-36070978D02*
X94030000Y-37320000D01*
X91320000Y-35840000D02*
X93799022Y-35840000D01*
X93799022Y-35840000D02*
X94030000Y-36070978D01*
X89880000Y-37280000D02*
X91320000Y-35840000D01*
X89880000Y-38660000D02*
X89880000Y-37280000D01*
%TO.N,/L_CS*%
X99320000Y-35840000D02*
X100350000Y-36870000D01*
X97030000Y-36070978D02*
X97260978Y-35840000D01*
X97030000Y-37170000D02*
X97030000Y-36070978D01*
X97260978Y-35840000D02*
X99320000Y-35840000D01*
%TO.N,GNDA*%
X91510000Y-37170000D02*
X93530000Y-37170000D01*
X91310000Y-37370000D02*
X91510000Y-37170000D01*
%TO.N,/L_EXTMODE*%
X94530000Y-38269022D02*
X94530000Y-37170000D01*
X94269022Y-38530000D02*
X94530000Y-38269022D01*
X93160000Y-38840000D02*
X93470000Y-38530000D01*
X93470000Y-38530000D02*
X94269022Y-38530000D01*
X93160000Y-39920000D02*
X93160000Y-38840000D01*
%TO.N,+3V3*%
X95030000Y-38420000D02*
X95030000Y-37170000D01*
X94130000Y-39320000D02*
X95030000Y-38420000D01*
%TO.N,VDDA*%
X95530000Y-39090000D02*
X95530000Y-37170000D01*
X95130000Y-39490000D02*
X95530000Y-39090000D01*
%TO.N,/L_CLK*%
X97679320Y-43181843D02*
X98030000Y-42831163D01*
X98030000Y-42831163D02*
X98030000Y-37170000D01*
%TO.N,/L_DAT*%
X91590000Y-43160000D02*
X96770000Y-43160000D01*
X97000000Y-38799022D02*
X97530000Y-38269022D01*
X90340000Y-44410000D02*
X91590000Y-43160000D01*
X96770000Y-43160000D02*
X97000000Y-42930000D01*
X97530000Y-38269022D02*
X97530000Y-37170000D01*
X90340000Y-47804500D02*
X90340000Y-44410000D01*
X90334500Y-47810000D02*
X90340000Y-47804500D01*
X97000000Y-42930000D02*
X97000000Y-38799022D01*
%TO.N,/L_EIN*%
X96530000Y-39785718D02*
X96530000Y-37170000D01*
X96275500Y-40040218D02*
X96530000Y-39785718D01*
X96275500Y-42050000D02*
X96275500Y-40040218D01*
%TO.N,VDDA*%
X101210000Y-38780000D02*
X99180000Y-38780000D01*
X101521357Y-39091357D02*
X101210000Y-38780000D01*
X101534020Y-39091357D02*
X101521357Y-39091357D01*
%TO.N,+3V3*%
X99518216Y-37594511D02*
X99368201Y-37444496D01*
X100735489Y-37594511D02*
X99518216Y-37594511D01*
X101450000Y-36880000D02*
X100735489Y-37594511D01*
%TO.N,/L_DAT*%
X90334500Y-47810000D02*
X90928940Y-47810000D01*
X90928940Y-47810000D02*
X92158940Y-49040000D01*
%TO.N,/L_CS*%
X100540000Y-45570114D02*
X100540000Y-48750000D01*
X100765980Y-42269502D02*
X100349989Y-42685493D01*
X100349989Y-42685493D02*
X100349989Y-45380103D01*
X97075000Y-49298940D02*
X97075000Y-49040000D01*
X97075000Y-49040000D02*
X96353090Y-49040000D01*
X100349989Y-45380103D02*
X100540000Y-45570114D01*
X98950000Y-50340000D02*
X98116060Y-50340000D01*
X100540000Y-48750000D02*
X98950000Y-50340000D01*
X96353090Y-49040000D02*
X95663778Y-48350688D01*
X98116060Y-50340000D02*
X97075000Y-49298940D01*
%TO.N,/L_EIN*%
X100989520Y-45164980D02*
X101074500Y-45080000D01*
X98645500Y-51730000D02*
X98535000Y-51730000D01*
X100215500Y-50160000D02*
X100989520Y-49385980D01*
X100215500Y-50160000D02*
X98645500Y-51730000D01*
X100989520Y-49385980D02*
X100989520Y-45164980D01*
%TO.N,VDDA*%
X95130000Y-39565500D02*
X95130000Y-39490000D01*
X92260000Y-42435500D02*
X95130000Y-39565500D01*
%TO.N,+3V3*%
X103000000Y-52880000D02*
X100310000Y-52880000D01*
X95825980Y-40179520D02*
X95825980Y-39854020D01*
X96030000Y-39650000D02*
X96030000Y-37320000D01*
X98440489Y-54749511D02*
X96949511Y-54749511D01*
X95420000Y-40585500D02*
X95825980Y-40179520D01*
X103610000Y-52270000D02*
X103000000Y-52880000D01*
X95825980Y-39854020D02*
X96030000Y-39650000D01*
X100310000Y-52880000D02*
X98440489Y-54749511D01*
X103610000Y-47150000D02*
X103170000Y-46710000D01*
X103170000Y-46710000D02*
X101950000Y-46710000D01*
X103610000Y-47150000D02*
X103610000Y-52270000D01*
%TO.N,GND*%
X100560000Y-51870000D02*
X100560000Y-51890000D01*
X100560000Y-51890000D02*
X98510000Y-53940000D01*
X96530000Y-53940000D02*
X95775000Y-54695000D01*
X98510000Y-53940000D02*
X96530000Y-53940000D01*
X95775000Y-54695000D02*
X95775000Y-56285000D01*
%TO.N,/L_CLK*%
X94723940Y-50555000D02*
X93618940Y-51660000D01*
%TO.N,Net-(J8-Pad1)*%
X91080000Y-51660000D02*
X92168940Y-51660000D01*
%TO.N,Net-(J8-Pad3)*%
X94841769Y-51461769D02*
X94841769Y-53118231D01*
X94940000Y-49040000D02*
X93608940Y-49040000D01*
X94841769Y-53118231D02*
X93240000Y-54720000D01*
%TO.N,Net-(J8-Pad4)*%
X99125500Y-49040000D02*
X99001060Y-49040000D01*
X99815500Y-48350000D02*
X99125500Y-49040000D01*
%TO.N,Net-(J8-Pad6)*%
X94400000Y-54750000D02*
X95595000Y-53555000D01*
X96240000Y-51730000D02*
X95595000Y-52375000D01*
X97085000Y-51730000D02*
X96240000Y-51730000D01*
X95595000Y-53555000D02*
X95595000Y-52375000D01*
%TD*%
%TA.AperFunction,Conductor*%
%TO.N,GND*%
G36*
X96395664Y-52953608D02*
G01*
X96410195Y-52959187D01*
X96432064Y-52969174D01*
X96432068Y-52969175D01*
X96440266Y-52972919D01*
X96585000Y-52993729D01*
X97585000Y-52993729D01*
X97586964Y-52993605D01*
X97586968Y-52993605D01*
X97643080Y-52990066D01*
X97643084Y-52990065D01*
X97649557Y-52989657D01*
X97695232Y-52977075D01*
X97746624Y-52973833D01*
X97885000Y-52993729D01*
X98996177Y-52993729D01*
X99064298Y-53013731D01*
X99110791Y-53067387D01*
X99120895Y-53137661D01*
X99091401Y-53202241D01*
X99085292Y-53208804D01*
X98214987Y-54079108D01*
X98152677Y-54113132D01*
X98125894Y-54116011D01*
X97657711Y-54116011D01*
X97589590Y-54096009D01*
X97570364Y-54079668D01*
X97570091Y-54079971D01*
X97565179Y-54075548D01*
X97560764Y-54070645D01*
X97457894Y-53995905D01*
X97411605Y-53962274D01*
X97411604Y-53962273D01*
X97406263Y-53958393D01*
X97400235Y-53955709D01*
X97400233Y-53955708D01*
X97237830Y-53883402D01*
X97237829Y-53883402D01*
X97231799Y-53880717D01*
X97138399Y-53860864D01*
X97051455Y-53842383D01*
X97051450Y-53842383D01*
X97044998Y-53841011D01*
X96854024Y-53841011D01*
X96847572Y-53842383D01*
X96847567Y-53842383D01*
X96760624Y-53860864D01*
X96667223Y-53880717D01*
X96661193Y-53883402D01*
X96661192Y-53883402D01*
X96498789Y-53955708D01*
X96498787Y-53955709D01*
X96492759Y-53958393D01*
X96487418Y-53962273D01*
X96487417Y-53962274D01*
X96470218Y-53974770D01*
X96338258Y-54070645D01*
X96333837Y-54075555D01*
X96333836Y-54075556D01*
X96300003Y-54113132D01*
X96210471Y-54212567D01*
X96207170Y-54218285D01*
X96128394Y-54354729D01*
X96114984Y-54377955D01*
X96055969Y-54559583D01*
X96036007Y-54749511D01*
X96036697Y-54756076D01*
X96048855Y-54871754D01*
X96043830Y-54922441D01*
X96029000Y-54969989D01*
X96029000Y-56413000D01*
X96008998Y-56481121D01*
X95955342Y-56527614D01*
X95903000Y-56539000D01*
X95647000Y-56539000D01*
X95578879Y-56518998D01*
X95532386Y-56465342D01*
X95521000Y-56413000D01*
X95521000Y-54968102D01*
X95517082Y-54954758D01*
X95502806Y-54952771D01*
X95464325Y-54958660D01*
X95460249Y-54959631D01*
X95389348Y-54955960D01*
X95331685Y-54914541D01*
X95305570Y-54848521D01*
X95305738Y-54823892D01*
X95310907Y-54774708D01*
X95337920Y-54709051D01*
X95347122Y-54698782D01*
X95987247Y-54058657D01*
X95995537Y-54051113D01*
X96002018Y-54047000D01*
X96007527Y-54041134D01*
X96048658Y-53997333D01*
X96051413Y-53994491D01*
X96071134Y-53974770D01*
X96073612Y-53971575D01*
X96081318Y-53962553D01*
X96106158Y-53936101D01*
X96111586Y-53930321D01*
X96121346Y-53912568D01*
X96132199Y-53896045D01*
X96133356Y-53894553D01*
X96144613Y-53880041D01*
X96162176Y-53839457D01*
X96167383Y-53828827D01*
X96188695Y-53790060D01*
X96190666Y-53782383D01*
X96190668Y-53782378D01*
X96193732Y-53770442D01*
X96200138Y-53751730D01*
X96205033Y-53740419D01*
X96208181Y-53733145D01*
X96209421Y-53725317D01*
X96209423Y-53725310D01*
X96215099Y-53689476D01*
X96217505Y-53677856D01*
X96226528Y-53642711D01*
X96226528Y-53642710D01*
X96228500Y-53635030D01*
X96228500Y-53614776D01*
X96230051Y-53595065D01*
X96231980Y-53582886D01*
X96233220Y-53575057D01*
X96229059Y-53531038D01*
X96228500Y-53519181D01*
X96228500Y-53077525D01*
X96248502Y-53009404D01*
X96260875Y-52993202D01*
X96264229Y-52989478D01*
X96324680Y-52952247D01*
X96395664Y-52953608D01*
G37*
%TD.AperFunction*%
%TA.AperFunction,Conductor*%
G36*
X92858930Y-36028002D02*
G01*
X92905423Y-36081658D01*
X92915527Y-36151932D01*
X92908791Y-36178228D01*
X92878255Y-36259684D01*
X92871500Y-36321866D01*
X92871500Y-36410500D01*
X92851498Y-36478621D01*
X92797842Y-36525114D01*
X92745500Y-36536500D01*
X91698343Y-36536500D01*
X91647095Y-36525607D01*
X91598323Y-36503892D01*
X91598315Y-36503889D01*
X91592288Y-36501206D01*
X91486035Y-36478621D01*
X91411944Y-36462872D01*
X91411939Y-36462872D01*
X91405487Y-36461500D01*
X91214513Y-36461500D01*
X91208061Y-36462872D01*
X91208056Y-36462872D01*
X91133965Y-36478621D01*
X91027712Y-36501206D01*
X91021682Y-36503891D01*
X91021681Y-36503891D01*
X90859278Y-36576197D01*
X90859276Y-36576198D01*
X90853248Y-36578882D01*
X90698747Y-36691134D01*
X90694326Y-36696044D01*
X90694325Y-36696045D01*
X90631671Y-36765630D01*
X90570960Y-36833056D01*
X90475473Y-36998444D01*
X90416458Y-37180072D01*
X90396496Y-37370000D01*
X90416458Y-37559928D01*
X90475473Y-37741556D01*
X90570960Y-37906944D01*
X90698747Y-38048866D01*
X90767823Y-38099053D01*
X90826632Y-38141780D01*
X90853248Y-38161118D01*
X90859276Y-38163802D01*
X90859278Y-38163803D01*
X90970103Y-38213145D01*
X91027712Y-38238794D01*
X91121112Y-38258647D01*
X91208056Y-38277128D01*
X91208061Y-38277128D01*
X91214513Y-38278500D01*
X91405487Y-38278500D01*
X91411939Y-38277128D01*
X91411944Y-38277128D01*
X91498888Y-38258647D01*
X91592288Y-38238794D01*
X91649897Y-38213145D01*
X91760722Y-38163803D01*
X91760724Y-38163802D01*
X91766752Y-38161118D01*
X91793369Y-38141780D01*
X91852177Y-38099053D01*
X91921253Y-38048866D01*
X92049040Y-37906944D01*
X92060231Y-37887561D01*
X92072392Y-37866499D01*
X92123775Y-37817506D01*
X92181510Y-37803500D01*
X92745500Y-37803500D01*
X92813621Y-37823502D01*
X92860114Y-37877158D01*
X92871500Y-37929500D01*
X92871500Y-38018134D01*
X92871869Y-38021531D01*
X92874839Y-38048866D01*
X92878255Y-38080316D01*
X92881027Y-38087709D01*
X92881027Y-38087711D01*
X92889458Y-38110200D01*
X92894641Y-38181007D01*
X92860571Y-38243524D01*
X92767747Y-38336348D01*
X92759461Y-38343888D01*
X92752982Y-38348000D01*
X92747557Y-38353777D01*
X92706357Y-38397651D01*
X92703602Y-38400493D01*
X92683865Y-38420230D01*
X92681385Y-38423427D01*
X92673682Y-38432447D01*
X92643414Y-38464679D01*
X92639595Y-38471625D01*
X92639593Y-38471628D01*
X92633652Y-38482434D01*
X92622801Y-38498953D01*
X92610386Y-38514959D01*
X92607241Y-38522228D01*
X92607238Y-38522232D01*
X92592826Y-38555537D01*
X92587609Y-38566187D01*
X92566305Y-38604940D01*
X92564334Y-38612615D01*
X92564334Y-38612616D01*
X92561267Y-38624562D01*
X92554863Y-38643266D01*
X92546819Y-38661855D01*
X92545580Y-38669678D01*
X92545577Y-38669688D01*
X92539901Y-38705524D01*
X92537495Y-38717144D01*
X92526500Y-38759970D01*
X92526500Y-38780224D01*
X92524949Y-38799934D01*
X92521780Y-38819943D01*
X92522526Y-38827835D01*
X92522277Y-38835758D01*
X92519796Y-38835680D01*
X92508633Y-38893333D01*
X92459595Y-38944673D01*
X92396689Y-38961500D01*
X90681866Y-38961500D01*
X90619684Y-38968255D01*
X90483295Y-39019385D01*
X90366739Y-39106739D01*
X90279385Y-39223295D01*
X90228255Y-39359684D01*
X90221500Y-39421866D01*
X90221500Y-41718134D01*
X90228255Y-41780316D01*
X90279385Y-41916705D01*
X90366739Y-42033261D01*
X90483295Y-42120615D01*
X90619684Y-42171745D01*
X90681866Y-42178500D01*
X91233570Y-42178500D01*
X91301691Y-42198502D01*
X91348184Y-42252158D01*
X91358880Y-42317670D01*
X91354384Y-42360451D01*
X91346496Y-42435500D01*
X91348873Y-42458109D01*
X91350746Y-42475932D01*
X91337974Y-42545771D01*
X91287002Y-42598619D01*
X91282383Y-42600448D01*
X91275974Y-42605104D01*
X91275971Y-42605106D01*
X91246613Y-42626436D01*
X91236693Y-42632952D01*
X91205465Y-42651420D01*
X91205462Y-42651422D01*
X91198638Y-42655458D01*
X91184317Y-42669779D01*
X91169284Y-42682619D01*
X91152893Y-42694528D01*
X91144076Y-42705186D01*
X91124702Y-42728605D01*
X91116712Y-42737384D01*
X89947747Y-43906348D01*
X89939461Y-43913888D01*
X89932982Y-43918000D01*
X89927557Y-43923777D01*
X89886357Y-43967651D01*
X89883602Y-43970493D01*
X89863865Y-43990230D01*
X89861385Y-43993427D01*
X89853682Y-44002447D01*
X89823414Y-44034679D01*
X89819595Y-44041625D01*
X89819593Y-44041628D01*
X89813652Y-44052434D01*
X89802801Y-44068953D01*
X89790386Y-44084959D01*
X89787241Y-44092228D01*
X89787238Y-44092232D01*
X89772826Y-44125537D01*
X89767609Y-44136187D01*
X89746305Y-44174940D01*
X89744334Y-44182615D01*
X89744334Y-44182616D01*
X89741267Y-44194562D01*
X89734863Y-44213266D01*
X89726819Y-44231855D01*
X89725580Y-44239678D01*
X89725577Y-44239688D01*
X89719901Y-44275524D01*
X89717495Y-44287144D01*
X89711219Y-44311590D01*
X89706500Y-44329970D01*
X89706500Y-44350224D01*
X89704949Y-44369934D01*
X89701780Y-44389943D01*
X89702526Y-44397835D01*
X89705941Y-44433961D01*
X89706500Y-44445819D01*
X89706500Y-47101367D01*
X89686498Y-47169488D01*
X89674136Y-47185677D01*
X89595460Y-47273056D01*
X89592159Y-47278774D01*
X89512263Y-47417158D01*
X89499973Y-47438444D01*
X89440958Y-47620072D01*
X89420996Y-47810000D01*
X89440958Y-47999928D01*
X89499973Y-48181556D01*
X89595460Y-48346944D01*
X89723247Y-48488866D01*
X89877748Y-48601118D01*
X89883776Y-48603802D01*
X89883778Y-48603803D01*
X90046179Y-48676108D01*
X90052212Y-48678794D01*
X90145612Y-48698647D01*
X90232556Y-48717128D01*
X90232561Y-48717128D01*
X90239013Y-48718500D01*
X90429987Y-48718500D01*
X90436439Y-48717128D01*
X90436444Y-48717128D01*
X90523387Y-48698647D01*
X90616788Y-48678794D01*
X90622815Y-48676111D01*
X90622823Y-48676108D01*
X90734909Y-48626204D01*
X90805276Y-48616770D01*
X90869573Y-48646877D01*
X90875252Y-48652216D01*
X91108306Y-48885270D01*
X91142332Y-48947582D01*
X91145211Y-48974365D01*
X91145211Y-49790000D01*
X91150440Y-49863111D01*
X91191636Y-50003411D01*
X91196507Y-50010990D01*
X91265818Y-50118841D01*
X91265820Y-50118844D01*
X91270690Y-50126421D01*
X91277500Y-50132322D01*
X91374385Y-50216274D01*
X91374388Y-50216276D01*
X91381197Y-50222176D01*
X91389394Y-50225920D01*
X91389395Y-50225920D01*
X91415343Y-50237770D01*
X91468999Y-50284263D01*
X91489001Y-50352384D01*
X91468999Y-50420505D01*
X91431123Y-50458381D01*
X91332519Y-50521750D01*
X91326618Y-50528560D01*
X91242666Y-50625445D01*
X91242664Y-50625448D01*
X91236764Y-50632257D01*
X91233020Y-50640454D01*
X91233020Y-50640455D01*
X91215946Y-50677842D01*
X91169453Y-50731498D01*
X91101332Y-50751500D01*
X90984513Y-50751500D01*
X90978061Y-50752872D01*
X90978056Y-50752872D01*
X90891112Y-50771353D01*
X90797712Y-50791206D01*
X90791682Y-50793891D01*
X90791681Y-50793891D01*
X90629278Y-50866197D01*
X90629276Y-50866198D01*
X90623248Y-50868882D01*
X90468747Y-50981134D01*
X90340960Y-51123056D01*
X90245473Y-51288444D01*
X90186458Y-51470072D01*
X90166496Y-51660000D01*
X90167186Y-51666565D01*
X90169205Y-51685770D01*
X90186458Y-51849928D01*
X90245473Y-52031556D01*
X90340960Y-52196944D01*
X90345378Y-52201851D01*
X90345379Y-52201852D01*
X90445452Y-52312994D01*
X90468747Y-52338866D01*
X90566474Y-52409869D01*
X90581291Y-52420634D01*
X90623248Y-52451118D01*
X90629276Y-52453802D01*
X90629278Y-52453803D01*
X90784938Y-52523107D01*
X90839034Y-52569087D01*
X90859683Y-52637014D01*
X90840331Y-52705323D01*
X90787120Y-52752324D01*
X90723802Y-52763825D01*
X90691253Y-52761263D01*
X90680234Y-52759906D01*
X90667331Y-52757735D01*
X90667330Y-52757735D01*
X90662540Y-52756929D01*
X90656301Y-52756853D01*
X90654860Y-52756835D01*
X90654856Y-52756835D01*
X90650001Y-52756776D01*
X90628146Y-52759906D01*
X90622413Y-52760727D01*
X90604550Y-52762000D01*
X87759329Y-52762000D01*
X87739944Y-52760500D01*
X87725142Y-52758195D01*
X87725140Y-52758195D01*
X87716271Y-52756814D01*
X87707371Y-52757978D01*
X87698395Y-52757868D01*
X87698405Y-52757050D01*
X87676914Y-52756759D01*
X87645660Y-52751809D01*
X87608167Y-52739627D01*
X87567902Y-52719111D01*
X87536010Y-52695939D01*
X87504061Y-52663990D01*
X87480889Y-52632098D01*
X87460373Y-52591833D01*
X87448191Y-52554341D01*
X87443376Y-52523941D01*
X87441946Y-52504232D01*
X87443186Y-52496269D01*
X87439064Y-52464747D01*
X87438000Y-52448410D01*
X87438000Y-44319329D01*
X87439500Y-44299944D01*
X87441805Y-44285142D01*
X87441805Y-44285140D01*
X87443186Y-44276271D01*
X87442022Y-44267371D01*
X87442132Y-44258395D01*
X87442950Y-44258405D01*
X87443241Y-44236914D01*
X87448191Y-44205660D01*
X87460373Y-44168167D01*
X87480889Y-44127902D01*
X87504061Y-44096010D01*
X87536010Y-44064061D01*
X87567902Y-44040889D01*
X87608167Y-44020373D01*
X87645659Y-44008191D01*
X87676059Y-44003376D01*
X87695768Y-44001946D01*
X87703731Y-44003186D01*
X87735253Y-43999064D01*
X87751590Y-43998000D01*
X88446794Y-43998000D01*
X88467698Y-43999746D01*
X88487462Y-44003071D01*
X88493652Y-44003147D01*
X88495137Y-44003165D01*
X88495142Y-44003165D01*
X88500001Y-44003224D01*
X88509909Y-44001805D01*
X88515267Y-44001038D01*
X88523242Y-44000154D01*
X88548881Y-43998136D01*
X88702111Y-43986076D01*
X88706918Y-43984922D01*
X88706924Y-43984921D01*
X88829783Y-43955425D01*
X88899245Y-43938748D01*
X88903818Y-43936854D01*
X89081974Y-43863060D01*
X89081978Y-43863058D01*
X89086548Y-43861165D01*
X89259408Y-43755236D01*
X89413570Y-43623570D01*
X89545236Y-43469408D01*
X89651165Y-43296548D01*
X89670876Y-43248963D01*
X89726854Y-43113818D01*
X89726855Y-43113816D01*
X89728748Y-43109245D01*
X89759297Y-42982000D01*
X89774921Y-42916924D01*
X89774922Y-42916918D01*
X89776076Y-42912111D01*
X89788736Y-42751254D01*
X89790094Y-42740234D01*
X89792265Y-42727331D01*
X89792265Y-42727330D01*
X89793071Y-42722540D01*
X89793224Y-42710001D01*
X89789273Y-42682413D01*
X89788000Y-42664550D01*
X89788000Y-36329329D01*
X89789500Y-36309944D01*
X89791805Y-36295142D01*
X89791805Y-36295140D01*
X89793186Y-36286271D01*
X89792022Y-36277371D01*
X89792132Y-36268395D01*
X89792950Y-36268405D01*
X89793241Y-36246914D01*
X89798191Y-36215660D01*
X89810373Y-36178167D01*
X89830889Y-36137902D01*
X89854061Y-36106010D01*
X89886010Y-36074061D01*
X89917902Y-36050889D01*
X89958167Y-36030373D01*
X89995659Y-36018191D01*
X90026059Y-36013376D01*
X90045768Y-36011946D01*
X90053731Y-36013186D01*
X90085253Y-36009064D01*
X90101590Y-36008000D01*
X92790809Y-36008000D01*
X92858930Y-36028002D01*
G37*
%TD.AperFunction*%
%TA.AperFunction,Conductor*%
G36*
X102918621Y-47363502D02*
G01*
X102965114Y-47417158D01*
X102976500Y-47469500D01*
X102976500Y-51955405D01*
X102956498Y-52023526D01*
X102939595Y-52044500D01*
X102774500Y-52209595D01*
X102712188Y-52243621D01*
X102685405Y-52246500D01*
X100388767Y-52246500D01*
X100377584Y-52245973D01*
X100370091Y-52244298D01*
X100362165Y-52244547D01*
X100362164Y-52244547D01*
X100302001Y-52246438D01*
X100298043Y-52246500D01*
X100270144Y-52246500D01*
X100266154Y-52247004D01*
X100254320Y-52247936D01*
X100210111Y-52249326D01*
X100202497Y-52251538D01*
X100202492Y-52251539D01*
X100190659Y-52254977D01*
X100171296Y-52258988D01*
X100151203Y-52261526D01*
X100143836Y-52264443D01*
X100143831Y-52264444D01*
X100110092Y-52277802D01*
X100098865Y-52281646D01*
X100056407Y-52293982D01*
X100049581Y-52298019D01*
X100038972Y-52304293D01*
X100021224Y-52312988D01*
X100002383Y-52320448D01*
X99995967Y-52325110D01*
X99995966Y-52325110D01*
X99966613Y-52346436D01*
X99956693Y-52352952D01*
X99925465Y-52371420D01*
X99925462Y-52371422D01*
X99918638Y-52375458D01*
X99904317Y-52389779D01*
X99889284Y-52402619D01*
X99872893Y-52414528D01*
X99867842Y-52420634D01*
X99844702Y-52448605D01*
X99836712Y-52457384D01*
X99763824Y-52530272D01*
X99701512Y-52564298D01*
X99630697Y-52559233D01*
X99573861Y-52516686D01*
X99549050Y-52450166D01*
X99548729Y-52441177D01*
X99548729Y-51774865D01*
X99568731Y-51706744D01*
X99585634Y-51685770D01*
X100165999Y-51105405D01*
X100228311Y-51071379D01*
X100255094Y-51068500D01*
X100310987Y-51068500D01*
X100317439Y-51067128D01*
X100317444Y-51067128D01*
X100404387Y-51048647D01*
X100497788Y-51028794D01*
X100503819Y-51026109D01*
X100666222Y-50953803D01*
X100666224Y-50953802D01*
X100672252Y-50951118D01*
X100826753Y-50838866D01*
X100870902Y-50789834D01*
X100950121Y-50701852D01*
X100950122Y-50701851D01*
X100954540Y-50696944D01*
X101050027Y-50531556D01*
X101109042Y-50349928D01*
X101110086Y-50340000D01*
X101126407Y-50184707D01*
X101153420Y-50119050D01*
X101162622Y-50108782D01*
X101381767Y-49889637D01*
X101390057Y-49882093D01*
X101396538Y-49877980D01*
X101443179Y-49828312D01*
X101445933Y-49825471D01*
X101465655Y-49805749D01*
X101468132Y-49802556D01*
X101475837Y-49793535D01*
X101478281Y-49790932D01*
X101506106Y-49761301D01*
X101511719Y-49751091D01*
X101515866Y-49743548D01*
X101526722Y-49727021D01*
X101534277Y-49717282D01*
X101534278Y-49717280D01*
X101539134Y-49711020D01*
X101556694Y-49670440D01*
X101561911Y-49659792D01*
X101579395Y-49627989D01*
X101579396Y-49627987D01*
X101583215Y-49621040D01*
X101588253Y-49601417D01*
X101594657Y-49582714D01*
X101599553Y-49571400D01*
X101599553Y-49571399D01*
X101602701Y-49564125D01*
X101603940Y-49556302D01*
X101603943Y-49556292D01*
X101609619Y-49520456D01*
X101612025Y-49508836D01*
X101621048Y-49473691D01*
X101621048Y-49473690D01*
X101623020Y-49466010D01*
X101623020Y-49445756D01*
X101624571Y-49426045D01*
X101626500Y-49413866D01*
X101627740Y-49406037D01*
X101623579Y-49362018D01*
X101623020Y-49350161D01*
X101623020Y-47724892D01*
X101643022Y-47656771D01*
X101696678Y-47610278D01*
X101766952Y-47600174D01*
X101775217Y-47601645D01*
X101848056Y-47617128D01*
X101848061Y-47617128D01*
X101854513Y-47618500D01*
X102045487Y-47618500D01*
X102051939Y-47617128D01*
X102051944Y-47617128D01*
X102138887Y-47598647D01*
X102232288Y-47578794D01*
X102276980Y-47558896D01*
X102400722Y-47503803D01*
X102400724Y-47503802D01*
X102406752Y-47501118D01*
X102484365Y-47444729D01*
X102555914Y-47392745D01*
X102561253Y-47388866D01*
X102565668Y-47383963D01*
X102570580Y-47379540D01*
X102571705Y-47380789D01*
X102625014Y-47347949D01*
X102658200Y-47343500D01*
X102850500Y-47343500D01*
X102918621Y-47363502D01*
G37*
%TD.AperFunction*%
%TA.AperFunction,Conductor*%
G36*
X94621054Y-41074518D02*
G01*
X94678481Y-41118150D01*
X94680960Y-41122444D01*
X94808747Y-41264366D01*
X94963248Y-41376618D01*
X94969276Y-41379302D01*
X94969278Y-41379303D01*
X95131681Y-41451609D01*
X95137712Y-41454294D01*
X95231113Y-41474147D01*
X95318056Y-41492628D01*
X95318061Y-41492628D01*
X95324513Y-41494000D01*
X95331115Y-41494000D01*
X95337682Y-41494690D01*
X95337517Y-41496258D01*
X95397947Y-41514002D01*
X95444440Y-41567658D01*
X95454544Y-41637932D01*
X95444932Y-41671251D01*
X95444279Y-41672719D01*
X95440973Y-41678444D01*
X95381958Y-41860072D01*
X95361996Y-42050000D01*
X95362686Y-42056565D01*
X95376646Y-42189383D01*
X95381958Y-42239928D01*
X95383998Y-42246206D01*
X95421480Y-42361564D01*
X95423508Y-42432531D01*
X95386845Y-42493329D01*
X95323133Y-42524655D01*
X95301647Y-42526500D01*
X93369094Y-42526500D01*
X93300973Y-42506498D01*
X93254480Y-42452842D01*
X93244376Y-42382568D01*
X93273870Y-42317988D01*
X93279999Y-42311405D01*
X94487926Y-41103479D01*
X94550238Y-41069453D01*
X94621054Y-41074518D01*
G37*
%TD.AperFunction*%
%TD*%
M02*
