M48
; DRILL file {KiCad (6.0.0)} date Thu Jun  9 20:52:28 2022
; FORMAT={-:-/ absolute / inch / decimal}
; #@! TF.CreationDate,2022-06-09T20:52:28+02:00
; #@! TF.GenerationSoftware,Kicad,Pcbnew,(6.0.0)
; #@! TF.FileFunction,Plated,1,2,PTH
FMAT,2
INCH
; #@! TA.AperFunction,Plated,PTH,ViaDrill
T1C0.0157
; #@! TA.AperFunction,Plated,PTH,ComponentDrill
T2C0.0394
%
G90
G05
T1
X3.4717Y-2.0657
X3.5386Y-1.522
X3.5565Y-1.8823
X3.5858Y-2.0339
X3.5949Y-1.4713
X3.6319Y-1.5161
X3.6323Y-1.6707
X3.6677Y-1.5717
X3.6709Y-2.1543
X3.6921Y-1.6575
X3.7059Y-1.548
X3.7165Y-2.1555
X3.7293Y-1.9819
X3.7339Y-2.0261
X3.7378Y-1.9307
X3.7453Y-1.5547
X3.7567Y-1.5979
X3.7636Y-2.062
X3.7663Y-1.9036
X3.7904Y-1.6555
X3.8169Y-2.1555
X3.8456Y-1.7001
X3.9047Y-1.5268
X3.9121Y-1.4742
X3.9297Y-1.9035
X3.9455Y-1.9748
X3.9508Y-1.4516
X3.9591Y-2.0421
X3.9672Y-1.6642
X3.9793Y-1.7748
X3.9941Y-1.452
X3.9974Y-1.539
X4.0138Y-1.839
T2
X3.6707Y-2.2159
X3.6707Y-2.3159
X3.7707Y-2.2159
X3.7707Y-2.3159
X3.8707Y-2.2159
X3.8707Y-2.3159
T0
M30
