%TF.GenerationSoftware,KiCad,Pcbnew,(6.0.0)*%
%TF.CreationDate,2022-06-09T20:52:26+02:00*%
%TF.ProjectId,TPS42-LCD-Shield,54505334-322d-44c4-9344-2d536869656c,rev?*%
%TF.SameCoordinates,Original*%
%TF.FileFunction,Legend,Bot*%
%TF.FilePolarity,Positive*%
%FSLAX46Y46*%
G04 Gerber Fmt 4.6, Leading zero omitted, Abs format (unit mm)*
G04 Created by KiCad (PCBNEW (6.0.0)) date 2022-06-09 20:52:26*
%MOMM*%
%LPD*%
G01*
G04 APERTURE LIST*
%ADD10C,0.100000*%
%ADD11C,0.120000*%
G04 APERTURE END LIST*
D10*
X95130714Y-51357857D02*
X95130714Y-51715000D01*
X95880714Y-51715000D01*
X95166428Y-50822142D02*
X95130714Y-50893571D01*
X95130714Y-51036428D01*
X95166428Y-51107857D01*
X95237857Y-51143571D01*
X95523571Y-51143571D01*
X95595000Y-51107857D01*
X95630714Y-51036428D01*
X95630714Y-50893571D01*
X95595000Y-50822142D01*
X95523571Y-50786428D01*
X95452142Y-50786428D01*
X95380714Y-51143571D01*
X95630714Y-50572142D02*
X95630714Y-50286428D01*
X95130714Y-50465000D02*
X95773571Y-50465000D01*
X95845000Y-50429285D01*
X95880714Y-50357857D01*
X95880714Y-50286428D01*
X95630714Y-50143571D02*
X95630714Y-49857857D01*
X95880714Y-50036428D02*
X95237857Y-50036428D01*
X95166428Y-50000714D01*
X95130714Y-49929285D01*
X95130714Y-49857857D01*
D11*
%TO.C,J7*%
X98440000Y-37870000D02*
X98440000Y-36670000D01*
X99930000Y-43670000D02*
X91630000Y-43670000D01*
X93120000Y-37870000D02*
X91630000Y-37870000D01*
X91630000Y-43670000D02*
X91630000Y-41930000D01*
X98440000Y-37870000D02*
X99930000Y-37870000D01*
X99930000Y-41930000D02*
X99930000Y-43670000D01*
X99930000Y-37870000D02*
X99930000Y-39210000D01*
X91630000Y-37870000D02*
X91630000Y-39210000D01*
%TO.C,JP6*%
X99200000Y-50040000D02*
X99200000Y-48040000D01*
X99200000Y-48040000D02*
X96400000Y-48040000D01*
X96400000Y-48040000D02*
X96400000Y-50040000D01*
X96400000Y-50040000D02*
X99200000Y-50040000D01*
%TO.C,JP8*%
X94293940Y-52660000D02*
X94293940Y-50660000D01*
X94293940Y-50660000D02*
X91493940Y-50660000D01*
X91493940Y-52660000D02*
X94293940Y-52660000D01*
X91493940Y-50660000D02*
X91493940Y-52660000D01*
%TO.C,JP5*%
X96410000Y-50730000D02*
X96410000Y-52730000D01*
X99210000Y-52730000D02*
X99210000Y-50730000D01*
X99210000Y-50730000D02*
X96410000Y-50730000D01*
X96410000Y-52730000D02*
X99210000Y-52730000D01*
%TO.C,JP7*%
X91483940Y-48040000D02*
X91483940Y-50040000D01*
X94283940Y-50040000D02*
X94283940Y-48040000D01*
X91483940Y-50040000D02*
X94283940Y-50040000D01*
X94283940Y-48040000D02*
X91483940Y-48040000D01*
%TD*%
M02*
