  0
SECTION
  2
HEADER
  9
$ANGBASE
  50
0.0
  9
$ANGDIR
  70
1
  9
$MEASUREMENT
  70
1
  0
ENDSEC
  0
SECTION
  2
TABLES
  0
TABLE
  2
LTYPE
  70
4
  0
LTYPE
  5
40F
  2
CONTINUOUS
  70
0
  3
Solid line
  72
65
  73
0
  40
0.0
  0
LTYPE
  5
410
  2
DASHDOT
 70
0
  3
Dash Dot ____ _ ____ _
 72
65
 73
4
 40
2.0
 49
1.25
 49
-0.25
 49
0.25
 49
-0.25
  0
LTYPE
  5
411
  2
DASHED
 70
0
  3
Dashed __ __ __ __ __
 72
65
 73
2
 40
0.75
 49
0.5
 49
-0.25
  0
LTYPE
  5
43B
  2
DOTTED
 70
0
  3
Dotted .  .  .  .
 72
65
 73
2
 40
0.2
 49
0.0
 49
-0.2
  0
ENDTAB
  0
TABLE
  2
STYLE
  70
4
  0
STYLE
  2
KICAD
  70
0
  40
0
  41
1
  42
1
  50
0
  71
0
  3
isocp.shx
  0
STYLE
  2
KICADB
  70
0
  40
0
  41
1
  42
1
  50
0
  71
0
  3
isocp.shx
  0
STYLE
  2
KICADI
  70
0
  40
0
  41
1
  42
1
  50
15
  71
0
  3
isocp.shx
  0
STYLE
  2
KICADBI
  70
0
  40
0
  41
1
  42
1
  50
15
  71
0
  3
isocp.shx
  0
ENDTAB
  0
TABLE
  2
LAYER
  70
1
  0
LAYER
  2
BLACK
  70
0
  62
7
  6
CONTINUOUS
  0
ENDTAB
  0
ENDSEC
  0
SECTION
  2
ENTITIES
0
LINE
8
BLACK
6
CONTINUOUS
10
175.4
20
-52.14
11
175.403
21
-41.1471
0
ARC
8
BLACK
10
210.51
20
-102.35
40
0.999993
50
-90.0004
51
0.000401073
0
LINE
8
BLACK
6
CONTINUOUS
10
118.05
20
-112.92
11
135.163
21
-112.92
0
LINE
8
BLACK
6
CONTINUOUS
10
136.163
20
-111.92
11
136.153
21
-96.3471
0
LINE
8
BLACK
6
CONTINUOUS
10
211.51
20
-102.35
11
211.51
21
-53.1242
0
LINE
8
BLACK
6
CONTINUOUS
10
121.11
20
-42.11
11
104.15
21
-42.11
0
LINE
8
BLACK
6
CONTINUOUS
10
157.4
20
-40.14
11
157.403
21
-36.0771
0
LINE
8
BLACK
6
CONTINUOUS
10
139.11
20
-40.1
11
122.107
21
-40.0971
0
ARC
8
BLACK
10
85.9788
20
-125.194
40
0.999966
50
-150.002
51
-59.9972
0
ARC
8
BLACK
10
138.453
20
-90.3929
40
0.999993
50
-90.0004
51
0.000401073
0
ARC
8
BLACK
10
135.163
20
-111.92
40
0.999993
50
-90.0004
51
-0
0
ARC
8
BLACK
10
73.1958
20
-103.109
40
0.999881
50
-240.007
51
-149.994
0
ARC
8
BLACK
10
92.3235
20
-100.209
40
1.23285
50
-150.331
51
-74.1872
0
LINE
8
BLACK
6
CONTINUOUS
10
175.12
20
-91.44
11
175.117
21
-102.363
0
LINE
8
BLACK
6
CONTINUOUS
10
72.3299
20
-103.609
11
85.1128
21
-125.694
0
ARC
8
BLACK
10
158.137
20
-90.4429
40
0.999993
50
-180
51
-89.9996
0
ARC
8
BLACK
10
86.8212
20
-95.2059
40
0.999987
50
29.9993
51
120.002
0
ARC
8
BLACK
10
104.15
20
-43.11
40
1
50
90
51
180
0
LINE
8
BLACK
6
CONTINUOUS
10
135.153
20
-95.3471
11
115.45
21
-95.35
0
LINE
8
BLACK
6
CONTINUOUS
10
100.797
20
-117.787
11
118.05
21
-112.92
0
LINE
8
BLACK
6
CONTINUOUS
10
176.117
20
-103.363
11
210.51
21
-103.35
0
LINE
8
BLACK
6
CONTINUOUS
10
86.4788
20
-126.06
11
100.797
21
-117.787
0
LINE
8
BLACK
6
CONTINUOUS
10
139.107
20
-36.0871
11
139.11
21
-40.1
0
LINE
8
BLACK
6
CONTINUOUS
10
121.107
20
-41.0971
11
121.11
21
-42.11
0
LINE
8
BLACK
6
CONTINUOUS
10
156.403
20
-35.0771
11
140.107
21
-35.0871
0
LINE
8
BLACK
6
CONTINUOUS
10
115.45
20
-95.35
11
92.6594
21
-101.395
0
LINE
8
BLACK
6
CONTINUOUS
10
104.147
20
-93.3729
11
120.413
21
-93.3729
0
ARC
8
BLACK
10
174.403
20
-41.1471
40
0.999993
50
-0.000401073
51
90.0004
0
ARC
8
BLACK
10
122.107
20
-41.0971
40
0.999993
50
-270
51
-180
0
LINE
8
BLACK
6
CONTINUOUS
10
158.137
20
-91.4429
11
175.12
21
-91.44
0
LINE
8
BLACK
6
CONTINUOUS
10
103.15
20
-43.11
11
103.147
21
-92.3729
0
LINE
8
BLACK
6
CONTINUOUS
10
157.14
20
-86.41
11
157.137
21
-90.4429
0
LINE
8
BLACK
6
CONTINUOUS
10
121.413
20
-92.3729
11
121.41
21
-91.39
0
LINE
8
BLACK
6
CONTINUOUS
10
210.51
20
-52.1242
11
175.4
21
-52.14
0
ARC
8
BLACK
10
156.403
20
-36.0771
40
0.999993
50
-0.000401073
51
90.0004
0
ARC
8
BLACK
10
210.51
20
-53.1242
40
0.999993
50
-0.000401073
51
90.0004
0
ARC
8
BLACK
10
140.107
20
-36.0871
40
0.999993
50
-270
51
-180
0
ARC
8
BLACK
10
120.413
20
-92.3729
40
0.999993
50
-90.0004
51
0.000401073
0
LINE
8
BLACK
6
CONTINUOUS
10
139.453
20
-90.3929
11
139.45
21
-86.41
0
LINE
8
BLACK
6
CONTINUOUS
10
91.2522
20
-100.819
11
87.6872
21
-94.7059
0
LINE
8
BLACK
6
CONTINUOUS
10
121.41
20
-91.39
11
138.453
21
-91.3929
0
ARC
8
BLACK
10
176.117
20
-102.363
40
0.999993
50
-180
51
-89.9996
0
LINE
8
BLACK
6
CONTINUOUS
10
174.403
20
-40.1471
11
157.4
21
-40.14
0
LINE
8
BLACK
6
CONTINUOUS
10
86.3212
20
-94.3399
11
72.696
21
-102.243
0
ARC
8
BLACK
10
104.147
20
-92.3729
40
0.999993
50
-180
51
-89.9996
0
LINE
8
BLACK
6
CONTINUOUS
10
139.45
20
-86.41
11
157.14
21
-86.41
0
ARC
8
BLACK
10
135.153
20
-96.3471
40
0.999993
50
-0.000401073
51
90.0004
  0
ENDSEC
  0
EOF
