  0
SECTION
  2
HEADER
  9
$ANGBASE
  50
0.0
  9
$ANGDIR
  70
1
  9
$MEASUREMENT
  70
1
  0
ENDSEC
  0
SECTION
  2
TABLES
  0
TABLE
  2
LTYPE
  70
4
  0
LTYPE
  5
40F
  2
CONTINUOUS
  70
0
  3
Solid line
  72
65
  73
0
  40
0.0
  0
LTYPE
  5
410
  2
DASHDOT
 70
0
  3
Dash Dot ____ _ ____ _
 72
65
 73
4
 40
2.0
 49
1.25
 49
-0.25
 49
0.25
 49
-0.25
  0
LTYPE
  5
411
  2
DASHED
 70
0
  3
Dashed __ __ __ __ __
 72
65
 73
2
 40
0.75
 49
0.5
 49
-0.25
  0
LTYPE
  5
43B
  2
DOTTED
 70
0
  3
Dotted .  .  .  .
 72
65
 73
2
 40
0.2
 49
0.0
 49
-0.2
  0
ENDTAB
  0
TABLE
  2
STYLE
  70
4
  0
STYLE
  2
KICAD
  70
0
  40
0
  41
1
  42
1
  50
0
  71
0
  3
isocp.shx
  0
STYLE
  2
KICADB
  70
0
  40
0
  41
1
  42
1
  50
0
  71
0
  3
isocp.shx
  0
STYLE
  2
KICADI
  70
0
  40
0
  41
1
  42
1
  50
15
  71
0
  3
isocp.shx
  0
STYLE
  2
KICADBI
  70
0
  40
0
  41
1
  42
1
  50
15
  71
0
  3
isocp.shx
  0
ENDTAB
  0
TABLE
  2
LAYER
  70
1
  0
LAYER
  2
BLACK
  70
0
  62
7
  6
CONTINUOUS
  0
ENDTAB
  0
ENDSEC
  0
SECTION
  2
ENTITIES
0
LINE
8
BLACK
6
CONTINUOUS
10
121.25
20
-40.15
11
84.77
21
-40.15
0
LINE
8
BLACK
6
CONTINUOUS
10
173.35
20
-112.67
11
118.035
21
-112.67
0
LINE
8
BLACK
6
CONTINUOUS
10
121.25
20
-40.08
11
121.25
21
-40.15
0
ARC
8
BLACK
10
209.83
20
-101.459
40
2.00253
50
-90.0004
51
-2.891
0
ARC
8
BLACK
10
173.452
20
-42.0842
40
1.99999
50
-0.000401076
51
90.0008
0
ARC
8
BLACK
10
141.05
20
-37.0884
40
2
50
-270
51
-179.999
0
LINE
8
BLACK
6
CONTINUOUS
10
137.052
20
-40.0842
11
121.25
21
-40.08
0
LINE
8
BLACK
6
CONTINUOUS
10
118.035
20
-112.67
11
100.54
21
-117.32
0
ARC
8
BLACK
10
84.77
20
-42.15
40
2
50
90
51
180
0
ARC
8
BLACK
10
155.43
20
-37.0885
40
2.00007
50
0.00206265
51
90
0
ARC
8
BLACK
10
209.834
20
-54.06
40
2
50
-0
51
90
0
LINE
8
BLACK
6
CONTINUOUS
10
157.43
20
-38.0842
11
157.43
21
-37.0884
0
LINE
8
BLACK
6
CONTINUOUS
10
175.35
20
-110.67
11
175.35
21
-105.47
0
LINE
8
BLACK
6
CONTINUOUS
10
81.62
20
-97.27
11
73.92
21
-101.74
0
ARC
8
BLACK
10
80.35
20
-95.2099
40
2.42008
50
-58.3472
51
-0.475875
0
LINE
8
BLACK
6
CONTINUOUS
10
175.45
20
-50.07
11
175.452
21
-42.0842
0
LINE
8
BLACK
6
CONTINUOUS
10
139.05
20
-37.0884
11
139.052
21
-38.0842
0
LINE
8
BLACK
6
CONTINUOUS
10
73.188
20
-104.472
11
84.65
21
-124.2
0
LINE
8
BLACK
6
CONTINUOUS
10
82.77
20
-95.23
11
82.77
21
-42.15
0
LINE
8
BLACK
6
CONTINUOUS
10
159.43
20
-40.0842
11
173.452
21
-40.0842
0
LINE
8
BLACK
6
CONTINUOUS
10
100.54
20
-117.32
11
87.39
21
-124.96
0
ARC
8
BLACK
10
74.92
20
-103.472
40
1.99998
50
-240.001
51
-149.999
0
ARC
8
BLACK
10
173.35
20
-110.67
40
2
50
-90
51
-0
0
LINE
8
BLACK
6
CONTINUOUS
10
155.43
20
-35.0884
11
141.05
21
-35.0884
0
ARC
8
BLACK
10
159.43
20
-38.0842
40
2.00001
50
-180
51
-90
0
ARC
8
BLACK
10
177.366
20
-50.1544
40
1.91746
50
-182.523
51
-87.4772
0
LINE
8
BLACK
6
CONTINUOUS
10
211.83
20
-101.56
11
211.834
21
-54.06
0
LINE
8
BLACK
6
CONTINUOUS
10
209.834
20
-52.06
11
177.45
21
-52.07
0
LINE
8
BLACK
6
CONTINUOUS
10
177.35
20
-103.47
11
209.83
21
-103.462
0
ARC
8
BLACK
10
177.35
20
-105.47
40
2.0001
50
90.0029
51
179.997
0
ARC
8
BLACK
10
86.3934
20
-123.234
40
1.99306
50
-151.01
51
-59.9977
0
ARC
8
BLACK
10
137.052
20
-38.0842
40
1.99997
50
-90.0008
51
-0.000401076
  0
ENDSEC
  0
EOF
