  0
SECTION
  2
HEADER
  9
$ANGBASE
  50
0.0
  9
$ANGDIR
  70
1
  9
$MEASUREMENT
  70
1
  0
ENDSEC
  0
SECTION
  2
TABLES
  0
TABLE
  2
LTYPE
  70
4
  0
LTYPE
  5
40F
  2
CONTINUOUS
  70
0
  3
Solid line
  72
65
  73
0
  40
0.0
  0
LTYPE
  5
410
  2
DASHDOT
 70
0
  3
Dash Dot ____ _ ____ _
 72
65
 73
4
 40
2.0
 49
1.25
 49
-0.25
 49
0.25
 49
-0.25
  0
LTYPE
  5
411
  2
DASHED
 70
0
  3
Dashed __ __ __ __ __
 72
65
 73
2
 40
0.75
 49
0.5
 49
-0.25
  0
LTYPE
  5
43B
  2
DOTTED
 70
0
  3
Dotted .  .  .  .
 72
65
 73
2
 40
0.2
 49
0.0
 49
-0.2
  0
ENDTAB
  0
TABLE
  2
STYLE
  70
4
  0
STYLE
  2
KICAD
  70
0
  40
0
  41
1
  42
1
  50
0
  71
0
  3
isocp.shx
  0
STYLE
  2
KICADB
  70
0
  40
0
  41
1
  42
1
  50
0
  71
0
  3
isocp.shx
  0
STYLE
  2
KICADI
  70
0
  40
0
  41
1
  42
1
  50
15
  71
0
  3
isocp.shx
  0
STYLE
  2
KICADBI
  70
0
  40
0
  41
1
  42
1
  50
15
  71
0
  3
isocp.shx
  0
ENDTAB
  0
TABLE
  2
LAYER
  70
1
  0
LAYER
  2
BLACK
  70
0
  62
7
  6
CONTINUOUS
  0
ENDTAB
  0
ENDSEC
  0
SECTION
  2
ENTITIES
0
LINE
8
BLACK
6
CONTINUOUS
10
195.37
20
-70.85
11
209.17
21
-70.85
0
LINE
8
BLACK
6
CONTINUOUS
10
209.17
20
-70.85
11
209.17
21
-84.65
0
LINE
8
BLACK
6
CONTINUOUS
10
209.17
20
-84.65
11
195.37
21
-84.65
0
LINE
8
BLACK
6
CONTINUOUS
10
195.37
20
-84.65
11
195.37
21
-70.85
0
LINE
8
BLACK
6
CONTINUOUS
10
195.37
20
-53.85
11
209.17
21
-53.85
0
LINE
8
BLACK
6
CONTINUOUS
10
209.17
20
-53.85
11
209.17
21
-67.65
0
LINE
8
BLACK
6
CONTINUOUS
10
209.17
20
-67.65
11
195.37
21
-67.65
0
LINE
8
BLACK
6
CONTINUOUS
10
195.37
20
-67.65
11
195.37
21
-53.85
0
LINE
8
BLACK
6
CONTINUOUS
10
195.37
20
-87.85
11
209.17
21
-87.85
0
LINE
8
BLACK
6
CONTINUOUS
10
209.17
20
-87.85
11
209.17
21
-101.65
0
LINE
8
BLACK
6
CONTINUOUS
10
209.17
20
-101.65
11
195.37
21
-101.65
0
LINE
8
BLACK
6
CONTINUOUS
10
195.37
20
-101.65
11
195.37
21
-87.85
0
LINE
8
BLACK
6
CONTINUOUS
10
177.38
20
-70.85
11
191.18
21
-70.85
0
LINE
8
BLACK
6
CONTINUOUS
10
191.18
20
-70.85
11
191.18
21
-84.65
0
LINE
8
BLACK
6
CONTINUOUS
10
191.18
20
-84.65
11
177.38
21
-84.65
0
LINE
8
BLACK
6
CONTINUOUS
10
177.38
20
-84.65
11
177.38
21
-70.85
0
LINE
8
BLACK
6
CONTINUOUS
10
123.38
20
-41.85
11
137.18
21
-41.85
0
LINE
8
BLACK
6
CONTINUOUS
10
137.18
20
-41.85
11
137.18
21
-55.65
0
LINE
8
BLACK
6
CONTINUOUS
10
137.18
20
-55.65
11
123.38
21
-55.65
0
LINE
8
BLACK
6
CONTINUOUS
10
123.38
20
-55.65
11
123.38
21
-41.85
0
LINE
8
BLACK
6
CONTINUOUS
10
159.38
20
-58.85
11
173.18
21
-58.85
0
LINE
8
BLACK
6
CONTINUOUS
10
173.18
20
-58.85
11
173.18
21
-72.65
0
LINE
8
BLACK
6
CONTINUOUS
10
173.18
20
-72.65
11
159.38
21
-72.65
0
LINE
8
BLACK
6
CONTINUOUS
10
159.38
20
-72.65
11
159.38
21
-58.85
0
LINE
8
BLACK
6
CONTINUOUS
10
141.38
20
-70.85
11
155.18
21
-70.85
0
LINE
8
BLACK
6
CONTINUOUS
10
155.18
20
-70.85
11
155.18
21
-84.65
0
LINE
8
BLACK
6
CONTINUOUS
10
155.18
20
-84.65
11
141.38
21
-84.65
0
LINE
8
BLACK
6
CONTINUOUS
10
141.38
20
-84.65
11
141.38
21
-70.85
0
LINE
8
BLACK
6
CONTINUOUS
10
123.38
20
-58.85
11
137.18
21
-58.85
0
LINE
8
BLACK
6
CONTINUOUS
10
137.18
20
-58.85
11
137.18
21
-72.65
0
LINE
8
BLACK
6
CONTINUOUS
10
137.18
20
-72.65
11
123.38
21
-72.65
0
LINE
8
BLACK
6
CONTINUOUS
10
123.38
20
-72.65
11
123.38
21
-58.85
0
LINE
8
BLACK
6
CONTINUOUS
10
115.5
20
-111.48
11
102.17
21
-115.052
0
LINE
8
BLACK
6
CONTINUOUS
10
102.17
20
-115.052
11
98.5985
21
-101.722
0
LINE
8
BLACK
6
CONTINUOUS
10
98.5985
20
-101.722
11
111.928
21
-98.1502
0
LINE
8
BLACK
6
CONTINUOUS
10
111.928
20
-98.1502
11
115.5
21
-111.48
0
LINE
8
BLACK
6
CONTINUOUS
10
95.8712
20
-112.48
11
83.92
21
-119.38
0
LINE
8
BLACK
6
CONTINUOUS
10
83.92
20
-119.38
11
77.02
21
-107.429
0
LINE
8
BLACK
6
CONTINUOUS
10
77.02
20
-107.429
11
88.9711
21
-100.529
0
LINE
8
BLACK
6
CONTINUOUS
10
88.9711
20
-100.529
11
95.8712
21
-112.48
0
LINE
8
BLACK
6
CONTINUOUS
10
159.38
20
-41.85
11
173.18
21
-41.85
0
LINE
8
BLACK
6
CONTINUOUS
10
173.18
20
-41.85
11
173.18
21
-55.65
0
LINE
8
BLACK
6
CONTINUOUS
10
173.18
20
-55.65
11
159.38
21
-55.65
0
LINE
8
BLACK
6
CONTINUOUS
10
159.38
20
-55.65
11
159.38
21
-41.85
0
LINE
8
BLACK
6
CONTINUOUS
10
177.38
20
-87.85
11
191.18
21
-87.85
0
LINE
8
BLACK
6
CONTINUOUS
10
191.18
20
-87.85
11
191.18
21
-101.65
0
LINE
8
BLACK
6
CONTINUOUS
10
191.18
20
-101.65
11
177.38
21
-101.65
0
LINE
8
BLACK
6
CONTINUOUS
10
177.38
20
-101.65
11
177.38
21
-87.85
0
LINE
8
BLACK
6
CONTINUOUS
10
105.38
20
-60.85
11
119.18
21
-60.85
0
LINE
8
BLACK
6
CONTINUOUS
10
119.18
20
-60.85
11
119.18
21
-74.65
0
LINE
8
BLACK
6
CONTINUOUS
10
119.18
20
-74.65
11
105.38
21
-74.65
0
LINE
8
BLACK
6
CONTINUOUS
10
105.38
20
-74.65
11
105.38
21
-60.85
0
LINE
8
BLACK
6
CONTINUOUS
10
105.37
20
-43.85
11
119.17
21
-43.85
0
LINE
8
BLACK
6
CONTINUOUS
10
119.17
20
-43.85
11
119.17
21
-57.65
0
LINE
8
BLACK
6
CONTINUOUS
10
119.17
20
-57.65
11
105.37
21
-57.65
0
LINE
8
BLACK
6
CONTINUOUS
10
105.37
20
-57.65
11
105.37
21
-43.85
0
LINE
8
BLACK
6
CONTINUOUS
10
123.38
20
-75.85
11
137.18
21
-75.85
0
LINE
8
BLACK
6
CONTINUOUS
10
137.18
20
-75.85
11
137.18
21
-89.65
0
LINE
8
BLACK
6
CONTINUOUS
10
137.18
20
-89.65
11
123.38
21
-89.65
0
LINE
8
BLACK
6
CONTINUOUS
10
123.38
20
-89.65
11
123.38
21
-75.85
0
LINE
8
BLACK
6
CONTINUOUS
10
177.38
20
-53.85
11
191.18
21
-53.85
0
LINE
8
BLACK
6
CONTINUOUS
10
191.18
20
-53.85
11
191.18
21
-67.65
0
LINE
8
BLACK
6
CONTINUOUS
10
191.18
20
-67.65
11
177.38
21
-67.65
0
LINE
8
BLACK
6
CONTINUOUS
10
177.38
20
-67.65
11
177.38
21
-53.85
0
LINE
8
BLACK
6
CONTINUOUS
10
141.38
20
-53.85
11
155.18
21
-53.85
0
LINE
8
BLACK
6
CONTINUOUS
10
155.18
20
-53.85
11
155.18
21
-67.65
0
LINE
8
BLACK
6
CONTINUOUS
10
155.18
20
-67.65
11
141.38
21
-67.65
0
LINE
8
BLACK
6
CONTINUOUS
10
141.38
20
-67.65
11
141.38
21
-53.85
0
LINE
8
BLACK
6
CONTINUOUS
10
159.38
20
-75.85
11
173.18
21
-75.85
0
LINE
8
BLACK
6
CONTINUOUS
10
173.18
20
-75.85
11
173.18
21
-89.65
0
LINE
8
BLACK
6
CONTINUOUS
10
173.18
20
-89.65
11
159.38
21
-89.65
0
LINE
8
BLACK
6
CONTINUOUS
10
159.38
20
-89.65
11
159.38
21
-75.85
0
LINE
8
BLACK
6
CONTINUOUS
10
141.37
20
-36.85
11
155.17
21
-36.85
0
LINE
8
BLACK
6
CONTINUOUS
10
155.17
20
-36.85
11
155.17
21
-50.65
0
LINE
8
BLACK
6
CONTINUOUS
10
155.17
20
-50.65
11
141.37
21
-50.65
0
LINE
8
BLACK
6
CONTINUOUS
10
141.37
20
-50.65
11
141.37
21
-36.85
0
LINE
8
BLACK
6
CONTINUOUS
10
120.1
20
-97.08
11
133.9
21
-97.08
0
LINE
8
BLACK
6
CONTINUOUS
10
133.9
20
-97.08
11
133.9
21
-110.88
0
LINE
8
BLACK
6
CONTINUOUS
10
133.9
20
-110.88
11
120.1
21
-110.88
0
LINE
8
BLACK
6
CONTINUOUS
10
120.1
20
-110.88
11
120.1
21
-97.08
0
LINE
8
BLACK
6
CONTINUOUS
10
105.38
20
-77.85
11
119.18
21
-77.85
0
LINE
8
BLACK
6
CONTINUOUS
10
119.18
20
-77.85
11
119.18
21
-91.65
0
LINE
8
BLACK
6
CONTINUOUS
10
119.18
20
-91.65
11
105.38
21
-91.65
0
LINE
8
BLACK
6
CONTINUOUS
10
105.38
20
-91.65
11
105.38
21
-77.85
  0
ENDSEC
  0
EOF
