  0
SECTION
  2
HEADER
  9
$ANGBASE
  50
0.0
  9
$ANGDIR
  70
1
  9
$MEASUREMENT
  70
1
  0
ENDSEC
  0
SECTION
  2
TABLES
  0
TABLE
  2
LTYPE
  70
4
  0
LTYPE
  5
40F
  2
CONTINUOUS
  70
0
  3
Solid line
  72
65
  73
0
  40
0.0
  0
LTYPE
  5
410
  2
DASHDOT
 70
0
  3
Dash Dot ____ _ ____ _
 72
65
 73
4
 40
2.0
 49
1.25
 49
-0.25
 49
0.25
 49
-0.25
  0
LTYPE
  5
411
  2
DASHED
 70
0
  3
Dashed __ __ __ __ __
 72
65
 73
2
 40
0.75
 49
0.5
 49
-0.25
  0
LTYPE
  5
43B
  2
DOTTED
 70
0
  3
Dotted .  .  .  .
 72
65
 73
2
 40
0.2
 49
0.0
 49
-0.2
  0
ENDTAB
  0
TABLE
  2
STYLE
  70
4
  0
STYLE
  2
KICAD
  70
0
  40
0
  41
1
  42
1
  50
0
  71
0
  3
isocp.shx
  0
STYLE
  2
KICADB
  70
0
  40
0
  41
1
  42
1
  50
0
  71
0
  3
isocp.shx
  0
STYLE
  2
KICADI
  70
0
  40
0
  41
1
  42
1
  50
15
  71
0
  3
isocp.shx
  0
STYLE
  2
KICADBI
  70
0
  40
0
  41
1
  42
1
  50
15
  71
0
  3
isocp.shx
  0
ENDTAB
  0
TABLE
  2
LAYER
  70
1
  0
LAYER
  2
BLACK
  70
0
  62
7
  6
CONTINUOUS
  0
ENDTAB
  0
ENDSEC
  0
SECTION
  2
ENTITIES
0
LINE
8
BLACK
6
CONTINUOUS
10
137.156
20
-40.15
11
84.77
21
-40.15
0
LINE
8
BLACK
6
CONTINUOUS
10
173.27
20
-112.55
11
118.04
21
-112.55
0
ARC
8
BLACK
10
191.866
20
-101.386
40
2
50
-90
51
-0
0
ARC
8
BLACK
10
173.406
20
-42.15
40
1.99999
50
-0.000401073
51
90.0004
0
ARC
8
BLACK
10
141.154
20
-37.1542
40
1.99996
50
-270.001
51
-179.999
0
LINE
8
BLACK
6
CONTINUOUS
10
118.04
20
-112.55
11
100.49
21
-117.25
0
ARC
8
BLACK
10
84.77
20
-42.15
40
2
50
90
51
180
0
ARC
8
BLACK
10
155.384
20
-37.1542
40
2.00001
50
0.000429715
51
89.9995
0
ARC
8
BLACK
10
191.866
20
-54.1342
40
1.99999
50
-0.00014324
51
90.0001
0
LINE
8
BLACK
6
CONTINUOUS
10
157.384
20
-38.15
11
157.384
21
-37.1542
0
LINE
8
BLACK
6
CONTINUOUS
10
175.27
20
-110.55
11
175.27
21
-105.384
0
LINE
8
BLACK
6
CONTINUOUS
10
81.6442
20
-97.3142
11
74.0019
21
-101.756
0
ARC
8
BLACK
10
80.2389
20
-95.209
40
2.53122
50
-56.2752
51
-0.476124
0
LINE
8
BLACK
6
CONTINUOUS
10
175.404
20
-50.1358
11
175.406
21
-42.15
0
LINE
8
BLACK
6
CONTINUOUS
10
139.154
20
-37.1542
11
139.156
21
-38.15
0
LINE
8
BLACK
6
CONTINUOUS
10
73.2698
20
-104.488
11
84.67
21
-124.11
0
LINE
8
BLACK
6
CONTINUOUS
10
82.77
20
-95.23
11
82.77
21
-42.15
0
LINE
8
BLACK
6
CONTINUOUS
10
159.384
20
-40.15
11
173.406
21
-40.15
0
LINE
8
BLACK
6
CONTINUOUS
10
100.49
20
-117.25
11
87.4021
21
-124.842
0
ARC
8
BLACK
10
75.0018
20
-103.488
40
1.99998
50
-240
51
-149.999
0
ARC
8
BLACK
10
173.27
20
-110.55
40
2
50
-90
51
-0
0
LINE
8
BLACK
6
CONTINUOUS
10
155.384
20
-35.1542
11
141.154
21
-35.1542
0
ARC
8
BLACK
10
159.384
20
-38.15
40
2
50
-180
51
-90
0
ARC
8
BLACK
10
177.32
20
-50.2202
40
1.91744
50
-182.523
51
-87.4768
0
LINE
8
BLACK
6
CONTINUOUS
10
193.866
20
-101.386
11
193.866
21
-54.1342
0
LINE
8
BLACK
6
CONTINUOUS
10
191.866
20
-52.1342
11
177.404
21
-52.1358
0
LINE
8
BLACK
6
CONTINUOUS
10
177.27
20
-103.384
11
191.866
21
-103.386
0
ARC
8
BLACK
10
177.27
20
-105.384
40
2.00008
50
90.0024
51
179.998
0
ARC
8
BLACK
10
86.402
20
-123.11
40
1.99992
50
-150.002
51
-59.9977
0
ARC
8
BLACK
10
137.156
20
-38.15
40
2
50
-90
51
-0
  0
ENDSEC
  0
EOF
